<svg width="130" height="130" viewBox="0 0 130 130" fill="none" xmlns="http://www.w3.org/2000/svg">
<g clip-path="url(#clip0_8002_2262)">
<path d="M65 130C29.1591 130 0 100.841 0 65C0 29.1591 29.1591 0 65 0C100.841 0 130 29.1591 130 65C130 100.841 100.841 130 65 130ZM65 1.87416C30.1933 1.87416 1.87416 30.1933 1.87416 65C1.87416 99.8067 30.1913 128.126 65 128.126C99.8087 128.126 128.126 99.8087 128.126 65C128.126 30.1913 99.8067 1.87416 65 1.87416Z" fill="#FFFBF0"/>
<path d="M13.5808 43.1075C13.633 43.1221 13.656 43.1389 13.6518 43.1556C13.5599 43.4669 13.5912 43.7866 13.7479 44.1146C13.9046 44.4426 14.1762 44.7602 14.567 45.0632L20.3921 49.5344C20.4234 49.5532 20.4276 49.6054 20.4005 49.6932C20.3754 49.7788 20.344 49.8227 20.3064 49.8206L16.2301 50.4286L19.4038 52.8544C19.4352 52.8732 19.4393 52.9254 19.4122 53.0132C19.3871 53.0988 19.3558 53.1427 19.3182 53.1406L11.3264 54.3336C10.8918 54.4026 10.5972 54.482 10.4447 54.5718C10.29 54.6617 10.1772 54.833 10.102 55.0837C10.0936 55.1088 10.0644 55.1151 10.0122 55.1004C9.95992 55.0858 9.93902 55.0649 9.94529 55.0378L10.0581 54.7035C10.1312 54.5196 10.2044 54.3044 10.2775 54.062C10.4217 53.5773 10.5449 53.1344 10.6452 52.7311C10.6724 52.6078 10.7142 52.4553 10.7664 52.2735C10.7748 52.2485 10.804 52.2422 10.8563 52.2568C10.9085 52.2715 10.9294 52.2923 10.9231 52.3195C10.8542 52.5535 10.827 52.7269 10.8458 52.8398C10.8646 52.9526 10.9377 53.0299 11.0673 53.0675C11.2135 53.1114 11.4789 53.1051 11.8633 53.0508L17.8786 52.144L15.7454 50.4934L12.3167 51.0116C11.9511 51.0722 11.6732 51.1474 11.4872 51.2372C11.3013 51.3271 11.1801 51.4629 11.1258 51.6446C11.1174 51.6697 11.0882 51.676 11.0359 51.6614C10.9837 51.6467 10.9628 51.6258 10.9691 51.5987L11.0756 51.2915C11.1488 51.1077 11.2156 50.9196 11.272 50.7295C11.3932 50.3242 11.4914 49.9627 11.5666 49.6451C11.5834 49.5553 11.6126 49.4425 11.6544 49.3046C11.6627 49.2795 11.692 49.2732 11.7442 49.2878C11.7965 49.3025 11.8174 49.3234 11.8111 49.3505C11.7693 49.4884 11.7568 49.5908 11.7693 49.6556C11.7839 49.7203 11.8278 49.7642 11.9072 49.7872C12.0451 49.829 12.3627 49.8102 12.8558 49.7308L14.5419 49.4696L13.4492 48.636C13.0898 48.3602 12.8056 48.1909 12.5988 48.1282C12.3397 48.0509 12.1705 48.1429 12.0932 48.402C12.0848 48.427 12.0555 48.4333 12.0033 48.4187C11.9511 48.404 11.9302 48.3832 11.9365 48.356C11.9594 48.2787 11.9929 48.1888 12.0367 48.0886C12.0806 47.9883 12.1433 47.8002 12.2269 47.5244C12.2728 47.3677 12.3188 47.1839 12.3627 46.9728L12.5006 46.463C12.5048 46.4463 12.534 46.4442 12.5862 46.4609C12.6385 46.4756 12.6615 46.4923 12.6573 46.5111C12.5695 46.8057 12.6009 47.0961 12.7492 47.3865C12.8976 47.6749 13.1838 47.982 13.6059 48.3038L15.0287 49.4048L18.8752 48.8136L14.498 45.4497C14.2995 45.2972 14.101 45.1906 13.9005 45.13C13.6581 45.059 13.4491 45.0736 13.2736 45.176C13.0981 45.2784 12.9707 45.4601 12.8934 45.7192C12.885 45.7443 12.8558 45.7506 12.8035 45.7359C12.7513 45.7213 12.7304 45.7004 12.7367 45.6733L12.9185 45.107C13.0292 44.802 13.1211 44.522 13.1942 44.2713C13.2465 44.0979 13.2966 43.8973 13.3468 43.6675L13.4993 43.1054C13.5035 43.0887 13.5327 43.0866 13.585 43.1033L13.5808 43.1075Z" fill="#FFFBF0"/>
<path d="M26.4157 37.3394C26.4617 37.3665 26.4742 37.4 26.4533 37.4376C26.3677 37.5859 26.2235 37.8199 26.0187 38.1396C25.814 38.4593 25.6698 38.6933 25.5842 38.8416C25.4713 39.038 25.3481 39.272 25.2102 39.5478C25.0744 39.8236 24.9615 40.0346 24.878 40.183C24.8591 40.2143 24.8278 40.2164 24.7798 40.1893C24.7338 40.1621 24.7192 40.1328 24.7359 40.1015C24.8654 39.8738 24.9365 39.6941 24.9448 39.5583C24.9553 39.4245 24.9009 39.3222 24.7839 39.2553C24.6669 39.1884 24.4287 39.1404 24.0715 39.1111L21.7523 38.9691L20.1247 41.8106L21.069 43.0997C21.2446 43.3358 21.4284 43.5072 21.6165 43.6158C21.8902 43.7725 22.1534 43.7934 22.4062 43.6785C22.6591 43.5636 22.8868 43.3296 23.0874 42.9765C23.1104 42.9368 23.1438 42.9305 23.1918 42.9577C23.2378 42.9848 23.2503 43.0182 23.2294 43.0559C23.148 43.1958 23.0247 43.3964 22.8555 43.6534C22.6695 43.9417 22.5128 44.1966 22.3874 44.4139C22.2663 44.625 22.1325 44.8757 21.9863 45.1661C21.8588 45.4252 21.7481 45.6383 21.6541 45.8013C21.6311 45.841 21.5977 45.8472 21.5496 45.8201C21.5015 45.7929 21.4911 45.7595 21.512 45.7219C21.6374 45.5025 21.7 45.2936 21.6979 45.0951C21.6979 44.8966 21.6248 44.6647 21.4827 44.3951C21.3407 44.1256 21.1067 43.7683 20.7786 43.3233L16.5414 37.5462C16.5268 37.517 16.5351 37.4752 16.5665 37.4208C16.5978 37.3665 16.6271 37.3415 16.6563 37.3477L24.1028 37.7907C24.8236 37.8387 25.3397 37.8304 25.6531 37.7656C25.9665 37.7008 26.1838 37.5629 26.3029 37.3498C26.3259 37.3101 26.3593 37.3038 26.4074 37.331L26.4157 37.3394ZM19.9074 41.516L21.3783 38.944L17.8702 38.7288L19.9074 41.516Z" fill="#FFFBF0"/>
<path d="M26.0793 25.1524C26.1211 25.188 26.1315 25.2151 26.1148 25.236C25.9017 25.4805 25.7993 25.7855 25.8056 26.1491C25.8119 26.5126 25.9331 26.9117 26.1671 27.3421L29.6229 33.8212C29.6438 33.8525 29.625 33.9006 29.5665 33.9695C29.508 34.0385 29.462 34.0636 29.4286 34.0468L21.6582 31.83C21.3009 31.7339 21.0105 31.6963 20.787 31.7193C20.5655 31.7423 20.3795 31.8384 20.2312 32.0076C20.2145 32.0285 20.1831 32.0202 20.1434 31.9846C20.1037 31.9491 20.0912 31.922 20.1079 31.9011L20.3482 31.6441C20.4924 31.5062 20.647 31.3411 20.812 31.151C21.2257 30.6746 21.5914 30.24 21.9089 29.8472C21.9967 29.7323 22.1137 29.5902 22.2621 29.4189C22.2788 29.398 22.308 29.4064 22.3498 29.4419C22.3916 29.4774 22.402 29.5046 22.3853 29.5255C22.0134 29.9538 21.9758 30.2985 22.2746 30.5597C22.3895 30.66 22.5483 30.7394 22.751 30.7937L28.4654 32.4255L25.8892 27.5719C25.7784 27.3693 25.6594 27.2105 25.5298 27.0976C25.3397 26.9326 25.137 26.8678 24.926 26.9054C24.715 26.943 24.4998 27.0872 24.2804 27.34C24.2637 27.3609 24.2344 27.3525 24.1926 27.317C24.1508 27.2815 24.1404 27.2543 24.1571 27.2334L24.5938 26.7529C24.832 26.5063 25.0451 26.2744 25.2352 26.055C25.348 25.9255 25.4797 25.7604 25.6322 25.5578L25.9853 25.1295C26.002 25.1086 26.0333 25.1169 26.073 25.1524H26.0793Z" fill="#FFFBF0"/>
<path d="M37.1529 24.2324C37.1738 24.2157 37.1989 24.2052 37.224 24.2032C37.249 24.2011 37.2657 24.2032 37.272 24.2094C37.6209 24.807 37.9699 25.3293 38.3188 25.7785C38.3627 25.8349 38.3836 25.8851 38.3815 25.9269C38.3815 25.9687 38.3459 26.0146 38.2812 26.0648L33.6428 29.6647C33.6219 29.6815 33.5947 29.6689 33.5613 29.625C33.5279 29.5833 33.5216 29.5519 33.5446 29.5352C33.787 29.3472 33.9499 29.1926 34.0314 29.0714C34.115 28.9502 34.1359 28.8227 34.0941 28.689C34.0523 28.5553 33.9499 28.3819 33.7828 28.1688L29.9425 23.2212C29.7775 23.008 29.6354 22.866 29.5184 22.797C29.4014 22.7281 29.2719 22.7176 29.1277 22.7678C28.9835 22.8179 28.7934 22.9328 28.5594 23.1146C28.5385 23.1313 28.5113 23.1188 28.4779 23.0749C28.4445 23.031 28.4382 23.0018 28.4612 22.9851L32.9073 19.5334C32.9784 19.4791 33.039 19.4833 33.0891 19.546L34.1881 20.9187C34.1986 20.9333 34.1881 20.9584 34.1547 20.996C34.1213 21.0336 34.092 21.044 34.069 21.0294C33.2667 20.3504 32.4581 20.3274 31.637 20.9646L31.2087 21.2969C30.9517 21.4953 30.8075 21.6834 30.772 21.8589C30.7365 22.0344 30.8054 22.2329 30.9768 22.4544L32.6692 24.6357L33.695 23.8396C34.4785 23.2316 34.6666 22.6633 34.2571 22.1368C34.2404 22.1159 34.2508 22.0887 34.2905 22.0595C34.3302 22.0302 34.3574 22.024 34.3741 22.0469L35.0845 22.9851L35.4856 23.4802C35.6778 23.6975 35.8283 23.8772 35.939 24.0193C35.9494 24.0339 35.9348 24.0569 35.8909 24.0903C35.8471 24.1238 35.822 24.1321 35.8095 24.1196C35.3331 23.5074 34.6979 23.5095 33.8998 24.13L32.8844 24.9177L34.7669 27.3435C34.9486 27.5775 35.1221 27.7091 35.2829 27.7321C35.4438 27.7551 35.6381 27.6799 35.8659 27.5023L36.3903 27.0948C37.3451 26.3531 37.5917 25.4213 37.1278 24.2951C37.1174 24.2805 37.1258 24.2617 37.1529 24.2408V24.2324Z" fill="#FFFBF0"/>
<path d="M48.4125 20.5117C48.4375 20.5597 48.4355 20.5911 48.4125 20.6015L46.461 21.5668C46.2751 21.6587 45.7694 21.5062 44.9441 21.1092C44.1188 20.7122 43.0595 20.1105 41.7641 19.3019C41.5949 19.4064 41.4612 19.4816 41.363 19.5297C41.1854 19.6174 40.9702 19.7135 40.7194 19.818L42.0566 22.5216C42.1799 22.7723 42.2927 22.9437 42.393 23.0335C42.4933 23.1254 42.6166 23.1589 42.7608 23.138C42.907 23.1171 43.1159 23.0377 43.3917 22.9019C43.4085 22.8935 43.4273 22.9144 43.4523 22.9625C43.4774 23.0105 43.4795 23.0398 43.4649 23.0481C43.1974 23.1798 42.9906 23.278 42.8401 23.3427L41.9375 23.7752L41.0705 24.2182C40.92 24.3018 40.7132 24.4104 40.4457 24.542C40.4207 24.5546 40.3977 24.5358 40.3726 24.4877C40.3496 24.4397 40.3496 24.4083 40.3726 24.3979C40.6484 24.2621 40.8385 24.143 40.943 24.0406C41.0475 23.9382 41.0955 23.817 41.0872 23.6749C41.0788 23.5329 41.012 23.3427 40.8929 23.1004L38.114 17.4863C37.9949 17.2439 37.8842 17.0767 37.7839 16.9848C37.6836 16.8929 37.5582 16.8574 37.4057 16.8783C37.2553 16.8971 37.0464 16.9744 36.7789 17.106C36.7622 17.1144 36.7434 17.0935 36.7183 17.0454C36.6932 16.9974 36.6912 16.9681 36.7058 16.9597L37.343 16.6589C37.7066 16.5001 37.997 16.3643 38.2164 16.2577C38.4838 16.1261 38.768 15.9694 39.0709 15.7897C39.1712 15.7291 39.2945 15.6581 39.4408 15.5766C39.587 15.4951 39.7521 15.4074 39.938 15.3154C40.6421 14.9665 41.2522 14.837 41.7725 14.9205C42.2927 15.0062 42.6751 15.2945 42.9195 15.7876C43.1389 16.2326 43.2141 16.6944 43.1431 17.1708C43.0721 17.6492 42.884 18.0943 42.5748 18.508C43.7219 19.1578 44.6537 19.6488 45.3704 19.9789C46.087 20.309 46.6783 20.5117 47.1442 20.589C47.6102 20.6663 48.0092 20.6224 48.3393 20.4573C48.3644 20.4448 48.3874 20.4636 48.4125 20.5117ZM41.2857 19.1933C41.8101 18.9342 42.1214 18.6166 42.2175 18.2405C42.3136 17.8665 42.2175 17.3881 41.9292 16.8051C41.6053 16.1512 41.2669 15.7479 40.9179 15.5996C40.5669 15.4512 40.1825 15.4805 39.7625 15.6894C39.447 15.8461 39.2527 16.0154 39.1775 16.1971C39.1023 16.381 39.1399 16.6254 39.2924 16.9326L40.5586 19.492C40.7675 19.4294 41.012 19.3291 41.2857 19.1933Z" fill="#FFFBF0"/>
<path d="M51.7576 18.5411C51.8203 18.7772 51.885 18.9422 51.9519 19.0363C52.0188 19.1303 52.1128 19.1804 52.2361 19.1846C52.3593 19.1888 52.5453 19.1595 52.8002 19.0906L53.5858 18.8837C54.2042 18.7208 54.6827 18.4095 55.0191 17.9519C55.3555 17.4943 55.5164 16.9553 55.5017 16.3347C55.5017 16.3055 55.5268 16.2888 55.5707 16.2804C55.6146 16.2741 55.6417 16.2825 55.648 16.3097C55.7859 17.1496 55.9259 17.8412 56.07 18.3823C56.0888 18.4513 56.0888 18.5056 56.07 18.5432C56.0512 18.5808 56.0032 18.61 55.9259 18.6309L49.804 20.2502C49.7873 20.2544 49.7706 20.2314 49.7581 20.1792C49.7435 20.1269 49.7455 20.0977 49.7643 20.0935C50.061 20.0141 50.27 19.9368 50.3953 19.8574C50.5186 19.778 50.5876 19.6693 50.6022 19.5294C50.6168 19.3894 50.5896 19.1909 50.5207 18.9276L48.9202 12.8727C48.8513 12.6115 48.7761 12.4255 48.6967 12.3169C48.6173 12.2082 48.5003 12.1476 48.3478 12.1372C48.1952 12.1268 47.9759 12.1581 47.6875 12.2354C47.6708 12.2396 47.6541 12.2166 47.6416 12.1644C47.6269 12.1121 47.629 12.0829 47.6478 12.0787L48.3185 11.9157C48.7071 11.8322 49.0226 11.7569 49.2671 11.6922C49.5282 11.6232 49.85 11.5292 50.2282 11.4101L50.878 11.2242C50.9051 11.2179 50.9239 11.2409 50.9386 11.2931C50.9532 11.3453 50.9469 11.3746 50.9198 11.3809C50.6314 11.4561 50.4267 11.5376 50.3034 11.6211C50.1801 11.7047 50.1112 11.8154 50.0986 11.9554C50.084 12.0954 50.1112 12.2939 50.1801 12.5572L51.7639 18.5474L51.7576 18.5411Z" fill="#FFFBF0"/>
<path d="M65.0125 9.32297C65.0167 9.37729 65.0104 9.40445 64.9916 9.40654C64.6949 9.42953 64.369 9.60921 64.0159 9.94769C63.6628 10.2862 63.3536 10.7103 63.0945 11.218L61.7447 13.8297L61.9725 16.8509C61.9934 17.1288 62.0331 17.3294 62.0937 17.4527C62.1522 17.5759 62.2525 17.6532 62.3966 17.6867C62.5408 17.7201 62.7643 17.7264 63.0694 17.7034C63.0966 17.7034 63.1112 17.7285 63.1154 17.7807C63.1195 17.835 63.107 17.8622 63.0819 17.8643C62.7852 17.8873 62.5554 17.8998 62.3924 17.9019L61.4063 17.9625L60.4368 18.0502C60.2571 18.0732 60.0189 18.0962 59.7222 18.1171C59.7034 18.1171 59.693 18.092 59.6888 18.0377C59.6846 17.9834 59.6909 17.9562 59.7097 17.9541C60.0148 17.9311 60.2362 17.8914 60.372 17.835C60.5078 17.7807 60.5977 17.6846 60.6416 17.5509C60.6854 17.4172 60.698 17.2145 60.6771 16.945L60.4661 14.1661L58.1782 11.1909C57.8356 10.7375 57.5493 10.4262 57.3132 10.259C57.0792 10.0919 56.8577 10.0145 56.6509 10.0313C56.6237 10.0313 56.6091 10.0062 56.6049 9.95396C56.6007 9.89963 56.6133 9.87247 56.6383 9.87038L57.0855 9.84949C57.284 9.85367 57.4302 9.84949 57.5201 9.84322C57.8251 9.82024 58.2576 9.77845 58.8134 9.71786L59.6491 9.64055C59.6658 9.64055 59.6784 9.66562 59.6825 9.71995C59.6867 9.77427 59.6805 9.80143 59.6616 9.80352C59.2918 9.83068 59.1184 9.97067 59.1372 10.2235C59.1477 10.3488 59.2124 10.4888 59.3315 10.6434L61.5149 13.5038L62.7205 11.147C62.9169 10.7604 63.0046 10.4282 62.9837 10.1504C62.9545 9.75547 62.6912 9.57578 62.196 9.61339C62.1772 9.61339 62.1668 9.58832 62.1626 9.53399C62.1584 9.47967 62.1647 9.45251 62.1835 9.45042L62.8855 9.41072C63.2637 9.40028 63.6105 9.38356 63.926 9.35849C64.0786 9.34595 64.2624 9.32297 64.4776 9.28954L64.9749 9.2373C64.9937 9.2373 65.0041 9.26238 65.0083 9.3167L65.0125 9.32297Z" fill="#FFFBF0"/>
<path d="M73.9278 12.4614C74.0448 12.7455 74.2078 13.0025 74.4167 13.2345C74.6257 13.4664 74.914 13.7505 75.2817 14.0848C75.6808 14.4526 75.9921 14.7639 76.2157 15.0167C76.4392 15.2695 76.6127 15.562 76.7401 15.8921C76.8655 16.2222 76.8926 16.5879 76.8174 16.9869C76.7317 17.4383 76.5395 17.8206 76.2387 18.1298C75.9378 18.4411 75.5533 18.6543 75.0853 18.7734C74.6173 18.8924 74.1096 18.9008 73.5601 18.7963C73.1882 18.7274 72.8142 18.6062 72.4381 18.4349C72.062 18.2635 71.7841 18.088 71.6086 17.9084C71.5397 17.8394 71.5104 17.7475 71.523 17.6305L71.8217 15.5933V15.5808C71.8301 15.5453 71.8573 15.5286 71.9011 15.5328C71.9471 15.5369 71.9701 15.5578 71.9722 15.5933C72.1268 16.3852 72.3483 17.0496 72.6366 17.5908C72.9249 18.1319 73.3616 18.4558 73.9466 18.5665C74.3269 18.6375 74.6654 18.5937 74.9621 18.4328C75.2587 18.2719 75.4531 17.9481 75.5429 17.4612C75.616 17.0705 75.593 16.7132 75.476 16.3894C75.359 16.0655 75.1919 15.7814 74.9746 15.539C74.7594 15.2967 74.4606 14.9937 74.0783 14.6281C73.7043 14.2729 73.4159 13.9783 73.2112 13.7422C73.0085 13.5061 72.8476 13.2345 72.7327 12.9231C72.6157 12.6118 72.5927 12.2713 72.6638 11.8994C72.7494 11.4376 72.9521 11.072 73.2697 10.8024C73.5873 10.5308 73.9654 10.3574 74.4063 10.2801C74.8471 10.2028 75.2943 10.2049 75.7456 10.2905C76.0464 10.347 76.3431 10.4326 76.6335 10.5475C76.924 10.6625 77.1621 10.7815 77.3502 10.909C77.4735 10.9863 77.5236 11.0845 77.5027 11.1994L77.2039 13.0151C77.1998 13.0422 77.1705 13.0548 77.1204 13.0548C77.0702 13.0548 77.0431 13.0401 77.0389 13.0109C76.9637 12.4363 76.8174 11.9035 76.6022 11.4084C76.387 10.9132 75.9837 10.6102 75.3904 10.4995C74.9913 10.4243 74.6528 10.4807 74.3749 10.6666C74.0971 10.8526 73.9195 11.1451 73.8463 11.5442C73.7857 11.8722 73.8129 12.1772 73.9299 12.4614H73.9278Z" fill="#FFFBF0"/>
<path d="M81.0964 20.1186C81.1131 20.2649 81.203 20.3965 81.3659 20.5177C81.5289 20.6368 81.8026 20.7705 82.1912 20.9168C82.2163 20.9272 82.2205 20.9565 82.1996 21.0066C82.1808 21.0568 82.1578 21.0777 82.1327 21.0672C81.7859 20.9356 81.5184 20.8311 81.3283 20.7475L80.2314 20.3192L79.3163 19.987C79.1533 19.9348 78.9318 19.8554 78.6539 19.7509C78.6289 19.7426 78.6247 19.7112 78.6456 19.6611C78.6644 19.6109 78.6874 19.59 78.7124 19.6005C78.9987 19.7091 79.2139 19.7655 79.356 19.7718C79.498 19.7781 79.615 19.73 79.707 19.6297C79.7968 19.5294 79.8929 19.3477 79.9911 19.0865L82.2059 13.2279C82.302 12.9751 82.3479 12.7808 82.3458 12.645C82.3458 12.5092 82.2873 12.3943 82.1724 12.2982C82.0575 12.2021 81.8632 12.1018 81.5853 11.9973C81.5602 11.9889 81.5561 11.9576 81.577 11.9075C81.5978 11.8573 81.6187 11.8364 81.6438 11.8469L82.2978 12.108C82.6634 12.2647 82.9601 12.3859 83.1858 12.4737C83.3801 12.5468 83.6203 12.6241 83.9087 12.7035C84.0131 12.7327 84.1531 12.7766 84.3286 12.833C84.5041 12.8894 84.711 12.9626 84.9471 13.0524C85.7828 13.3679 86.3762 13.7941 86.7272 14.3332C87.0782 14.8702 87.1158 15.5074 86.838 16.2408C86.6374 16.7715 86.3302 17.1726 85.9145 17.4401C85.5008 17.7075 85.0453 17.8538 84.548 17.8788C84.0508 17.9039 83.5807 17.8308 83.1335 17.6615C82.8974 17.5717 82.7073 17.4756 82.5631 17.3732C82.5381 17.3628 82.5339 17.3377 82.5485 17.2959C82.5589 17.2708 82.5736 17.2479 82.5966 17.227C82.6195 17.2061 82.6363 17.204 82.6509 17.2186C82.7721 17.3043 82.9141 17.3753 83.075 17.4359C83.5138 17.601 83.9546 17.5613 84.3955 17.3126C84.8364 17.064 85.1853 16.6022 85.4402 15.9274C85.693 15.2609 85.7306 14.6842 85.5572 14.1995C85.3838 13.7147 85.0223 13.3679 84.4749 13.1611C84.2722 13.0838 84.1093 13.0482 83.9881 13.0503C83.8669 13.0524 83.7624 13.1026 83.6788 13.2008C83.5953 13.299 83.5054 13.4703 83.4114 13.7147L81.2259 19.4981C81.1236 19.7676 81.0818 19.9766 81.0985 20.1228L81.0964 20.1186Z" fill="#FFFBF0"/>
<path d="M94.2594 27.6217C94.2301 27.6676 94.205 27.6823 94.1821 27.6676L92.3392 26.5039C92.1637 26.3931 92.03 25.8833 91.9381 24.9703C91.8462 24.0593 91.8086 22.8412 91.8232 21.3139C91.6456 21.2241 91.5119 21.1488 91.4199 21.0903C91.2528 20.9838 91.0585 20.8521 90.8391 20.6913L89.2282 23.2424C89.0798 23.4785 88.9921 23.6644 88.967 23.7961C88.9419 23.9277 88.9754 24.053 89.0694 24.1659C89.1634 24.2787 89.341 24.4166 89.6001 24.5817C89.6147 24.5921 89.6085 24.6193 89.5792 24.6652C89.5499 24.7112 89.5291 24.73 89.5123 24.7196C89.2595 24.5608 89.0694 24.4333 88.9357 24.3393L88.0958 23.794L87.2642 23.2862C87.1138 23.2027 86.9132 23.0815 86.6625 22.9227C86.6395 22.9081 86.6416 22.8788 86.6708 22.8329C86.7001 22.7869 86.7251 22.7723 86.7481 22.7869C87.0072 22.9499 87.2078 23.0502 87.3499 23.0878C87.4919 23.1233 87.6215 23.1024 87.7364 23.0188C87.8513 22.9373 87.9808 22.7827 88.1271 22.5529L91.4722 17.2564C91.6163 17.0286 91.702 16.8468 91.7271 16.7131C91.7521 16.5794 91.7166 16.454 91.6226 16.3349C91.5265 16.2159 91.3531 16.078 91.1023 15.9171C91.0877 15.9066 91.094 15.8795 91.1232 15.8335C91.1525 15.7875 91.1734 15.7687 91.1901 15.7792L91.7772 16.1657C92.1032 16.3935 92.3685 16.571 92.5753 16.7006C92.8261 16.8594 93.1081 17.0223 93.4215 17.1853C93.526 17.2396 93.6493 17.3086 93.7955 17.3901C93.9418 17.4716 94.1027 17.5677 94.2782 17.6784C94.9426 18.0963 95.373 18.5518 95.5715 19.0386C95.77 19.5275 95.7219 20.0039 95.4294 20.4677C95.1641 20.8877 94.811 21.1906 94.3659 21.3808C93.9209 21.5688 93.4424 21.6398 92.9284 21.5939C92.9702 22.9123 93.0392 23.9611 93.1311 24.7446C93.223 25.5281 93.3568 26.1382 93.5344 26.5749C93.712 27.0116 93.9564 27.3292 94.2698 27.5277C94.2928 27.5423 94.2907 27.5715 94.2615 27.6175L94.2594 27.6217ZM91.6707 20.8501C92.1658 21.1635 92.5983 21.2637 92.9702 21.1509C93.3401 21.0381 93.6994 20.7059 94.0463 20.1585C94.437 19.54 94.6041 19.0428 94.5477 18.6667C94.4913 18.2906 94.2656 17.9772 93.8687 17.7265C93.572 17.5384 93.3254 17.4611 93.129 17.4925C92.9326 17.5238 92.7446 17.6847 92.5607 17.973L91.0376 20.3862C91.2005 20.5325 91.4137 20.6871 91.6727 20.8501H91.6707Z" fill="#FFFBF0"/>
<path d="M97.4038 30.0872C97.3536 30.2104 97.3641 30.3358 97.4372 30.4633C97.5103 30.5907 97.6608 30.7558 97.8906 30.9626C97.9115 30.9814 97.9031 31.0107 97.8655 31.0504C97.83 31.0901 97.8008 31.1026 97.7819 31.0838C97.5667 30.8916 97.3996 30.7328 97.2784 30.6116L96.543 29.9326L95.8096 29.2911C95.6759 29.1825 95.4983 29.0299 95.2789 28.8294C95.258 28.8106 95.2664 28.7813 95.304 28.7416C95.3395 28.7019 95.3687 28.6894 95.3875 28.7082C95.6153 28.9129 95.7971 29.0467 95.9308 29.1073C96.0645 29.1678 96.1961 29.1678 96.3236 29.1073C96.451 29.0467 96.6056 28.915 96.7874 28.7145L100.981 24.0594C101.163 23.8588 101.275 23.6937 101.319 23.5621C101.363 23.4326 101.351 23.3009 101.28 23.1714C101.208 23.0418 101.06 22.8726 100.832 22.6678C100.812 22.649 100.82 22.6198 100.857 22.5801C100.893 22.5404 100.922 22.5279 100.941 22.5467L101.455 23.0272C101.737 23.3072 101.973 23.5308 102.161 23.7C102.368 23.888 102.625 24.1074 102.934 24.3581L103.446 24.8011C103.467 24.8199 103.459 24.8491 103.421 24.8888C103.386 24.9285 103.356 24.9411 103.338 24.9223C103.116 24.7238 102.936 24.5963 102.796 24.5441C102.656 24.4898 102.525 24.496 102.399 24.5608C102.274 24.6256 102.122 24.7572 101.942 24.9578L97.7673 29.592C97.5793 29.7988 97.4602 29.966 97.41 30.0893L97.4038 30.0872Z" fill="#FFFBF0"/>
<path d="M111.751 34.6774C111.71 34.7108 111.683 34.7212 111.67 34.7066C111.449 34.4225 111.175 34.2804 110.851 34.2825C110.527 34.2846 110.176 34.4308 109.798 34.7254L104.28 39.0232C104.259 39.04 104.23 39.0337 104.196 39.0023C104.161 38.971 104.146 38.9438 104.148 38.9188L106.066 29.3808L101.723 32.7656C101.344 33.0602 101.115 33.359 101.033 33.664C100.949 33.9691 101.021 34.2637 101.242 34.5478C101.252 34.5625 101.238 34.5854 101.194 34.6189C101.15 34.6523 101.125 34.6607 101.112 34.6481C100.962 34.4559 100.853 34.3076 100.782 34.2031L100.352 33.6285L99.8505 33.008C99.7544 32.8993 99.6227 32.7384 99.4577 32.5253C99.441 32.5044 99.4535 32.4773 99.4974 32.4438C99.5392 32.4104 99.5705 32.4041 99.5872 32.4271C99.8254 32.7322 100.11 32.8931 100.44 32.9035C100.77 32.916 101.123 32.774 101.499 32.4815L106.175 28.8397C106.233 28.4741 106.242 28.1774 106.204 27.9517C106.165 27.7261 106.079 27.5255 105.945 27.3563C105.935 27.3416 105.949 27.3186 105.993 27.2852C106.035 27.2518 106.062 27.2413 106.075 27.256L106.396 27.6906C106.461 27.7888 106.559 27.9225 106.693 28.0938L107.236 28.7687C107.309 28.8481 107.393 28.9483 107.489 29.0695C107.533 29.1259 107.552 29.1803 107.546 29.2304C107.539 29.2806 107.516 29.3683 107.475 29.4916L107.332 30.0139L105.799 37.381L109.576 34.4371C109.953 34.1425 110.187 33.8437 110.272 33.5345C110.358 33.2274 110.293 32.9348 110.078 32.657C110.067 32.6423 110.082 32.6194 110.126 32.5859C110.168 32.5525 110.195 32.542 110.207 32.5567L110.538 33.0017C110.701 33.2399 110.841 33.4342 110.958 33.5846C111.068 33.7267 111.225 33.9127 111.428 34.1446L111.804 34.6063C111.814 34.621 111.8 34.6439 111.756 34.6774H111.751Z" fill="#FFFBF0"/>
<path d="M107.464 43.4736C107.504 42.6274 107.742 41.8857 108.179 41.2484C108.615 40.6112 109.205 40.1243 109.942 39.7859C110.73 39.4244 111.52 39.3116 112.316 39.4432C113.11 39.5748 113.839 39.9259 114.501 40.4963C115.163 41.0666 115.7 41.7979 116.11 42.6922C116.298 43.1017 116.448 43.5175 116.561 43.9374C116.674 44.3574 116.724 44.7188 116.716 45.0197C116.716 45.1096 116.707 45.1639 116.689 45.189C116.67 45.2119 116.609 45.2516 116.507 45.3101L114.957 46.2127C114.931 46.2232 114.904 46.2086 114.877 46.1668C114.848 46.125 114.848 46.0936 114.877 46.0707C115.316 45.6611 115.644 45.1284 115.863 44.4723C116.083 43.8162 116.028 43.1268 115.698 42.4059C115.439 41.8397 115.059 41.3905 114.562 41.0604C114.062 40.7282 113.484 40.5527 112.823 40.5318C112.163 40.5109 111.482 40.6613 110.776 40.9852C110.03 41.3278 109.418 41.7833 108.939 42.3537C108.461 42.9241 108.168 43.5593 108.062 44.2571C107.955 44.9549 108.062 45.6528 108.381 46.3506C108.542 46.7037 108.709 46.9586 108.881 47.1174C109.052 47.2762 109.265 47.3514 109.52 47.3452C109.775 47.3368 110.107 47.2407 110.517 47.0527C110.943 46.8584 111.229 46.6975 111.375 46.57C111.522 46.4447 111.584 46.2838 111.565 46.0895C111.547 45.8952 111.44 45.588 111.248 45.1702C111.225 45.12 111.248 45.0824 111.313 45.0511C111.338 45.0406 111.363 45.0364 111.388 45.0385C111.413 45.0406 111.432 45.0511 111.438 45.0678C111.708 45.7677 111.937 46.3214 112.125 46.7309C112.313 47.1404 112.52 47.5625 112.748 47.9929C112.756 48.0096 112.752 48.0284 112.738 48.0493C112.723 48.0702 112.706 48.0848 112.692 48.0932C112.633 48.1203 112.596 48.112 112.577 48.0702C112.51 47.903 112.43 47.8007 112.339 47.763C112.247 47.7254 112.102 47.7401 111.904 47.8048C111.705 47.8717 111.373 48.0117 110.905 48.2248C110.535 48.394 110.281 48.5278 110.138 48.628C109.996 48.7283 109.904 48.7868 109.863 48.8056C109.813 48.8286 109.777 48.8349 109.754 48.8265C109.729 48.8182 109.698 48.7889 109.654 48.7388C108.952 47.8111 108.415 46.9398 108.043 46.1292C107.619 45.2015 107.426 44.3156 107.464 43.4694V43.4736Z" fill="#FFFBF0"/>
<path d="M116.68 51.9795C116.467 52.2009 116.298 52.4517 116.168 52.7379C116.039 53.0221 115.897 53.4002 115.738 53.8724C115.56 54.3864 115.402 54.7959 115.259 55.101C115.117 55.406 114.921 55.6839 114.668 55.9325C114.415 56.1812 114.092 56.3504 113.697 56.4423C113.249 56.5468 112.821 56.5217 112.416 56.3713C112.011 56.2209 111.659 55.9534 111.363 55.5732C111.066 55.1929 110.855 54.7312 110.728 54.1858C110.642 53.816 110.602 53.4253 110.609 53.0116C110.615 52.5979 110.665 52.2741 110.757 52.0401C110.792 51.9481 110.863 51.8855 110.976 51.8499L112.961 51.3067H112.974C113.009 51.2963 113.034 51.313 113.049 51.3548C113.064 51.3986 113.053 51.4279 113.022 51.4446C112.359 51.9043 111.839 52.3744 111.461 52.8549C111.083 53.3355 110.96 53.8662 111.095 54.447C111.183 54.8252 111.359 55.1177 111.626 55.3245C111.891 55.5314 112.265 55.5794 112.75 55.4666C113.137 55.3768 113.454 55.2117 113.705 54.9735C113.956 54.7353 114.148 54.4679 114.284 54.1733C114.42 53.8787 114.576 53.4817 114.758 52.9865C114.931 52.5018 115.086 52.1195 115.22 51.8374C115.353 51.5553 115.539 51.3004 115.778 51.0685C116.016 50.8366 116.319 50.6799 116.689 50.5942C117.146 50.4877 117.562 50.5253 117.938 50.7071C118.314 50.8888 118.625 51.1646 118.874 51.5386C119.123 51.9105 119.298 52.3221 119.403 52.7693C119.472 53.068 119.513 53.3731 119.524 53.6844C119.536 53.9957 119.522 54.2631 119.48 54.4867C119.457 54.6309 119.39 54.7165 119.275 54.7416L117.491 55.1971C117.464 55.2034 117.441 55.1825 117.422 55.1365C117.403 55.0905 117.405 55.0592 117.428 55.0446C117.923 54.7437 118.354 54.3969 118.722 54.002C119.087 53.6071 119.204 53.114 119.066 52.5269C118.974 52.132 118.788 51.8437 118.504 51.664C118.222 51.4843 117.884 51.4404 117.487 51.5323C117.161 51.6076 116.893 51.7559 116.68 51.9774V51.9795Z" fill="#FFFBF0"/>
<path d="M70.2798 57.9525C70.1545 57.9525 70.027 57.9149 69.9142 57.8397C69.6196 57.637 69.5444 57.2338 69.7471 56.9392C72.0976 53.5126 73.6918 49.7873 74.4815 45.8656C74.7636 44.4636 74.9454 43.022 75.0164 41.5824C75.0352 41.2251 75.3424 40.9451 75.6955 40.9681C76.0527 40.9869 76.3264 41.2899 76.3097 41.6472C76.2345 43.1494 76.0465 44.6558 75.7498 46.1205C74.9245 50.2156 73.2634 54.1018 70.8147 57.6705C70.6893 57.8522 70.4867 57.9525 70.2798 57.9525Z" fill="#FFFBF0"/>
<path d="M58.0153 58.5751C56.3773 56.8931 54.9523 55.0106 53.7781 52.9818C52.6624 51.0534 51.7828 49.0162 51.1622 46.9227C50.3453 44.171 48.9768 39.5619 50.5333 34.4805C51.0807 32.6921 52.3615 28.505 55.4935 27.6442C56.3877 27.3976 57.0772 27.5209 58.1219 27.7089C58.8636 27.8427 59.879 28.0244 61.3855 28.1477C62.7227 28.2584 64.0745 28.2919 65.4054 28.2501C65.4367 28.2501 67.0978 28.2334 68.7734 28.0955C70.282 27.9722 71.2974 27.7904 72.0391 27.6567C73.0817 27.4707 73.7712 27.3475 74.6675 27.5919C77.7974 28.4527 79.0803 32.6398 79.6277 34.4283C81.1842 39.5096 79.8178 44.1167 79.0009 46.8705C78.3782 48.9661 77.4986 51.0053 76.385 52.9317C75.2128 54.9605 73.7858 56.843 72.1478 58.5249L71.2201 57.6223C72.7829 56.0177 74.1431 54.2208 75.263 52.284C76.3265 50.4454 77.1643 48.5022 77.7577 46.5048C78.583 43.7218 79.8303 39.518 78.3887 34.8107C77.9039 33.2269 76.7673 29.5162 74.3228 28.8435C73.7106 28.6763 73.228 28.762 72.2669 28.9333C71.5001 29.0712 70.4491 29.2592 68.88 29.3888C67.1584 29.5309 65.5015 29.5476 65.4326 29.5476C64.0682 29.5894 62.6662 29.5538 61.281 29.441C59.7119 29.3115 58.6609 29.1234 57.8941 28.9855C56.933 28.8142 56.4504 28.7265 55.8382 28.8957C53.3937 29.5685 52.257 33.2792 51.7723 34.8629C50.3307 39.5723 51.578 43.7761 52.4033 46.5591C52.9946 48.5545 53.8345 50.4976 54.898 52.3383C56.0179 54.2752 57.3781 56.072 58.9409 57.6766L58.0132 58.5792L58.0153 58.5751Z" fill="#FFFBF0"/>
<path d="M39.2925 80.4113C37.7631 80.4113 36.1313 80.217 34.4452 79.701C32.6567 79.1535 28.4696 77.8728 27.6088 74.7408C27.3623 73.8466 27.4855 73.1571 27.6736 72.1145C27.8073 71.3728 27.9891 70.3573 28.1123 68.8488C28.2231 67.5116 28.2565 66.1598 28.2147 64.8289C28.2147 64.7976 28.198 63.1365 28.0601 61.4629C27.9368 59.9544 27.753 58.939 27.6213 58.1993C27.4333 57.1568 27.31 56.4673 27.5566 55.5709C28.4174 52.4411 32.6045 51.1582 34.393 50.6108C39.4764 49.0542 44.0834 50.4228 46.8372 51.2376C48.9286 51.8581 50.9678 52.7378 52.8963 53.8535C54.9272 55.0277 56.8076 56.4526 58.4895 58.0907L57.5869 59.0184C55.9823 57.4555 54.1855 56.0954 52.2486 54.9755C50.4079 53.912 48.4627 53.0721 46.4695 52.4808C43.6864 51.6555 39.4847 50.4081 34.7732 51.8498C33.1874 52.3345 29.4788 53.4711 28.806 55.9157C28.6368 56.5279 28.7245 57.0105 28.8958 57.9716C29.0337 58.7384 29.2218 59.7894 29.3513 61.3585C29.4934 63.0801 29.5101 64.737 29.5101 64.8059C29.5519 66.1703 29.5164 67.5722 29.4036 68.9575C29.274 70.5266 29.086 71.5775 28.9481 72.3443C28.7747 73.3054 28.689 73.7881 28.8582 74.4002C29.531 76.8448 33.2417 77.9793 34.8254 78.4641C39.5328 79.9036 43.7366 78.6584 46.5175 77.8352C48.517 77.2397 50.4622 76.3998 52.2988 75.3384C54.2356 74.2185 56.0325 72.8583 57.6371 71.2955L58.5397 72.2231C56.8578 73.8612 54.9752 75.2861 52.9465 76.4604C51.0222 77.574 48.983 78.4536 46.8873 79.0762C45.0445 79.6216 42.3764 80.4134 39.2904 80.4134L39.2925 80.4113Z" fill="#FFFBF0"/>
<path d="M90.7577 80.5926C87.6717 80.5926 85.0015 79.8007 83.1608 79.2554C81.0693 78.6349 79.0301 77.7552 77.1016 76.6395C75.0728 75.4674 73.1903 74.0425 71.5084 72.4044L72.411 71.4767C74.0177 73.0396 75.8125 74.4018 77.7493 75.5196C79.59 76.5852 81.5352 77.423 83.5285 78.0143C86.3094 78.8396 90.5132 80.087 95.2247 78.6453C96.8085 78.1606 100.519 77.0219 101.192 74.5794C101.361 73.9672 101.273 73.4846 101.102 72.5235C100.964 71.7567 100.776 70.7057 100.647 69.1366C100.505 67.4129 100.488 65.7581 100.488 65.6892C100.446 64.3248 100.482 62.9229 100.594 61.5376C100.724 59.9685 100.912 58.9176 101.05 58.1508C101.221 57.1897 101.309 56.707 101.14 56.0949C100.467 53.6503 96.7562 52.5158 95.1725 52.029C90.4652 50.5873 86.2614 51.8346 83.4783 52.6599C81.4809 53.2533 79.5378 54.0912 77.6992 55.1546C75.7623 56.2745 73.9655 57.6347 72.3609 59.1975L71.4583 58.2699C73.1402 56.6318 75.0227 55.2069 77.0515 54.0326C78.9779 52.919 81.0171 52.0394 83.1106 51.4168C85.8644 50.5998 90.4714 49.2334 95.5528 50.79C97.3412 51.3374 101.528 52.6182 102.389 55.7501C102.636 56.6464 102.512 57.3338 102.324 58.3785C102.191 59.1202 102.009 60.1357 101.886 61.6421C101.775 62.9793 101.741 64.3311 101.783 65.662C101.783 65.6934 101.8 67.3544 101.938 69.0301C102.061 70.5386 102.245 71.554 102.377 72.2937C102.565 73.3363 102.688 74.0257 102.441 74.92C101.581 78.0498 97.3935 79.3327 95.605 79.8801C93.921 80.3962 92.2871 80.5905 90.7577 80.5905V80.5926Z" fill="#FFFBF0"/>
<path d="M73.4765 102.546C72.9834 102.546 72.4841 102.456 71.8573 102.343C71.1156 102.209 70.1001 102.028 68.5916 101.904C66.918 101.766 65.2549 101.75 65.2382 101.75C63.8968 101.708 62.5429 101.744 61.2036 101.852C59.6951 101.975 58.6818 102.157 57.94 102.291C56.8975 102.479 56.208 102.602 55.3116 102.356C52.1818 101.495 50.8989 97.3099 50.3515 95.5214C48.7949 90.438 50.1614 85.8309 50.9783 83.0772C51.5988 80.9857 52.4785 78.9465 53.5942 77.018C54.7663 74.9893 56.1933 73.1067 57.8314 71.4248L58.7591 72.3274C57.1962 73.9341 55.8361 75.7289 54.7162 77.6657C53.6527 79.5064 52.8128 81.4496 52.2215 83.4449C51.3962 86.2258 50.1488 90.4317 51.5905 95.1411C52.0773 96.727 53.2118 100.436 55.6564 101.108C56.2665 101.275 56.7512 101.19 57.7123 101.016C58.4791 100.879 59.53 100.69 61.0992 100.561C62.4886 100.446 63.8885 100.413 65.2653 100.454C65.3197 100.454 66.9765 100.471 68.6982 100.613C70.2673 100.743 71.3182 100.931 72.085 101.069C73.0461 101.242 73.5267 101.326 74.1409 101.161C76.5834 100.488 77.72 96.7792 78.2047 95.1934C79.6464 90.4839 78.3991 86.2781 77.5738 83.4971C76.9825 81.5039 76.1426 79.5587 75.0791 77.718C73.9592 75.779 72.599 73.9822 71.0362 72.3796L71.9638 71.4749C73.6019 73.1569 75.0268 75.0373 76.2011 77.0703C77.3168 78.9987 78.1964 81.0359 78.8169 83.1294C79.6339 85.8811 81.0024 90.4881 79.4458 95.5715C78.8984 97.36 77.6156 101.547 74.4857 102.408C74.1284 102.506 73.8046 102.546 73.4786 102.546H73.4765Z" fill="#FFFBF0"/>
<path d="M59.8789 63.4559C58.0904 63.4559 56.6342 61.9996 56.6342 60.2111C56.6342 58.4226 58.0904 56.9663 59.8789 56.9663C61.6674 56.9663 63.1237 58.4226 63.1237 60.2111C63.1237 61.9996 61.6674 63.4559 59.8789 63.4559ZM59.8789 58.2617C58.8029 58.2617 57.9296 59.1372 57.9296 60.2111C57.9296 61.285 58.805 62.1605 59.8789 62.1605C60.9529 62.1605 61.8283 61.285 61.8283 60.2111C61.8283 59.1372 60.9529 58.2617 59.8789 58.2617Z" fill="#FFFBF0"/>
<path d="M59.622 57.7936C59.4151 57.7936 59.2125 57.6954 59.0871 57.5115C56.6363 53.9408 54.9752 50.0546 54.152 45.9615C53.8574 44.4948 53.6694 42.9884 53.5921 41.4882C53.5733 41.1309 53.8491 40.828 54.2064 40.8092C54.5574 40.7945 54.8687 41.0661 54.8854 41.4234C54.9585 42.8609 55.1382 44.3026 55.4203 45.7066C56.2101 49.6283 57.8022 53.3537 60.1548 56.7802C60.3574 57.0748 60.2822 57.4781 59.9876 57.6807C59.8748 57.758 59.7473 57.7936 59.622 57.7936Z" fill="#FFFBF0"/>
<path d="M75.5763 89.3139C75.2337 89.3139 74.9474 89.0444 74.9307 88.6997C74.8576 87.2622 74.6779 85.8226 74.3958 84.4165C73.6061 80.4947 72.014 76.7694 69.6614 73.345C69.4587 73.0504 69.5339 72.6471 69.8285 72.4444C70.1231 72.2418 70.5264 72.317 70.729 72.6116C73.1798 76.1823 74.8409 80.0685 75.6641 84.1616C75.9587 85.6304 76.1467 87.1347 76.224 88.637C76.2428 88.9943 75.967 89.2972 75.6098 89.316C75.5993 89.316 75.5868 89.316 75.5763 89.316V89.3139Z" fill="#FFFBF0"/>
<path d="M54.1561 89.1533C54.1457 89.1533 54.1331 89.1533 54.1227 89.1533C53.7654 89.1345 53.4917 88.8315 53.5084 88.4743C53.5836 86.972 53.7717 85.4656 54.0684 84.0009C54.8937 79.9058 56.5547 76.0196 59.0034 72.4509C59.2061 72.1563 59.6093 72.0811 59.9039 72.2838C60.1985 72.4865 60.2738 72.8897 60.0711 73.1843C57.7206 76.6088 56.1285 80.3341 55.3366 84.2579C55.0545 85.6599 54.8728 87.1015 54.8017 88.5411C54.785 88.8879 54.4988 89.1554 54.1561 89.1554V89.1533Z" fill="#FFFBF0"/>
<path d="M41.3484 76.5418C41.0058 76.5418 40.7195 76.2723 40.7028 75.9275C40.684 75.5702 40.9598 75.2652 41.3171 75.2485C42.7587 75.1753 44.1983 74.9957 45.6003 74.7136C49.522 73.9238 53.2473 72.3296 56.6739 69.9791C56.9685 69.7764 57.3717 69.8517 57.5744 70.1463C57.7771 70.4409 57.7018 70.8441 57.4072 71.0468C53.8365 73.4976 49.9503 75.1586 45.8573 75.9818C44.3926 76.2764 42.8883 76.4645 41.3839 76.5418C41.3735 76.5418 41.361 76.5418 41.3505 76.5418H41.3484Z" fill="#FFFBF0"/>
<path d="M57.2005 60.5016C57.0751 60.5016 56.9477 60.464 56.8348 60.3888C53.4104 58.0383 49.685 56.4441 45.7612 55.6543C44.3593 55.3722 42.9176 55.1905 41.478 55.1194C41.1208 55.1006 40.847 54.7977 40.8638 54.4404C40.8826 54.0831 41.1897 53.8136 41.5428 53.8261C43.0451 53.9013 44.5515 54.0894 46.0161 54.3861C50.1113 55.2113 53.9975 56.8724 57.5661 59.3232C57.8607 59.5259 57.9359 59.9291 57.7333 60.2237C57.6079 60.4055 57.4052 60.5037 57.1984 60.5037L57.2005 60.5016Z" fill="#FFFBF0"/>
<path d="M88.5868 76.6941C88.5763 76.6941 88.5638 76.6941 88.5533 76.6941C87.0511 76.6189 85.5468 76.4309 84.08 76.1342C79.9849 75.3089 76.0987 73.6478 72.53 71.1991C72.2354 70.9964 72.1602 70.5932 72.3629 70.2986C72.5656 70.004 72.9688 69.9288 73.2634 70.1315C76.6879 72.482 80.4132 74.0762 84.337 74.8659C85.7411 75.1501 87.1827 75.3298 88.6202 75.4008C88.9775 75.4196 89.2512 75.7226 89.2345 76.0799C89.2178 76.4267 88.9315 76.6941 88.5889 76.6941H88.5868Z" fill="#FFFBF0"/>
<path d="M72.7348 60.652C72.528 60.652 72.3253 60.5538 72.1999 60.3699C71.9973 60.0753 72.0725 59.672 72.3671 59.4694C75.9378 57.0186 79.824 55.3575 83.9171 54.5343C85.3859 54.2397 86.8902 54.0517 88.3904 53.9744C88.7456 53.9576 89.0527 54.2314 89.0694 54.5886C89.0882 54.9459 88.8124 55.251 88.4552 55.2677C87.0177 55.3408 85.5781 55.5205 84.172 55.8025C80.2502 56.5923 76.5249 58.1844 73.0984 60.537C72.9855 60.6143 72.8581 60.6499 72.7327 60.6499L72.7348 60.652Z" fill="#FFFBF0"/>
<path d="M70.002 63.3533C68.2135 63.3533 66.7572 61.897 66.7572 60.1085C66.7572 58.3201 68.2135 56.8638 70.002 56.8638C71.7905 56.8638 73.2468 58.3201 73.2468 60.1085C73.2468 61.897 71.7905 63.3533 70.002 63.3533ZM70.002 58.1592C68.928 58.1592 68.0526 59.0346 68.0526 60.1085C68.0526 61.1825 68.928 62.0579 70.002 62.0579C71.0759 62.0579 71.9513 61.1825 71.9513 60.1085C71.9513 59.0346 71.0759 58.1592 70.002 58.1592Z" fill="#FFFBF0"/>
<path d="M59.9187 73.2112C58.1302 73.2112 56.674 71.7549 56.674 69.9665C56.674 68.178 58.1302 66.7217 59.9187 66.7217C61.7072 66.7217 63.1635 68.178 63.1635 69.9665C63.1635 71.7549 61.7072 73.2112 59.9187 73.2112ZM59.9187 68.015C58.8427 68.015 57.9694 68.8904 57.9694 69.9644C57.9694 71.0383 58.8448 71.9137 59.9187 71.9137C60.9927 71.9137 61.8681 71.0383 61.8681 69.9644C61.8681 68.8904 60.9927 68.015 59.9187 68.015Z" fill="#FFFBF0"/>
<path d="M70.0396 73.1087C68.2511 73.1087 66.7948 71.6524 66.7948 69.8639C66.7948 68.0754 68.2511 66.6191 70.0396 66.6191C71.8281 66.6191 73.2844 68.0754 73.2844 69.8639C73.2844 71.6524 71.8281 73.1087 70.0396 73.1087ZM70.0396 67.9125C68.9636 67.9125 68.0902 68.7879 68.0902 69.8618C68.0902 70.9358 68.9656 71.8112 70.0396 71.8112C71.1135 71.8112 71.9889 70.9358 71.9889 69.8618C71.9889 68.7879 71.1135 67.9125 70.0396 67.9125Z" fill="#FFFBF0"/>
<path d="M64.9206 68.3426C63.1321 68.3426 61.6758 66.8863 61.6758 65.0978C61.6758 63.3093 63.1321 61.853 64.9206 61.853C66.7091 61.853 68.1653 63.3093 68.1653 65.0978C68.1653 66.8863 66.7091 68.3426 64.9206 68.3426ZM64.9206 63.1484C63.8445 63.1484 62.9712 64.0239 62.9712 65.0978C62.9712 66.1717 63.8466 67.0472 64.9206 67.0472C65.9945 67.0472 66.8699 66.1717 66.8699 65.0978C66.8699 64.0239 65.9945 63.1484 64.9206 63.1484Z" fill="#FFFBF0"/>
<path d="M64.6343 32.3159C63.0464 32.2846 61.5066 31.9754 60.0565 31.3966C57.9505 30.5546 56.6091 29.3114 56.0387 28.7786L56.9204 27.8301C57.4824 28.3524 58.6567 29.4431 60.5392 30.1931C61.8283 30.7092 63.1989 30.9871 64.6134 31.0205C66.0446 30.9934 67.4299 30.7134 68.7357 30.1931C70.6183 29.441 71.7904 28.3524 72.3545 27.8301L73.2362 28.7786C72.6637 29.3093 71.3245 30.5546 69.2184 31.3966C67.7684 31.9754 66.2285 32.2846 64.6406 32.3159V32.2365L64.6364 32.3159H64.6343Z" fill="#FFFBF0"/>
<path d="M28.641 74.011L27.6924 73.1293C28.2147 72.5673 29.3033 71.3951 30.0555 69.5105C30.5715 68.2193 30.8494 66.8487 30.8828 65.4342C30.8557 64.003 30.5757 62.6177 30.0555 61.314C29.3033 59.4314 28.2147 58.2593 27.6924 57.6952L28.641 56.8135C29.1717 57.386 30.4169 58.7252 31.2589 60.8313C31.8377 62.2813 32.1469 63.8212 32.1782 65.4091H32.0884L32.1782 65.4133C32.1469 67.0012 31.8377 68.5411 31.2589 69.9911C30.4169 72.0992 29.1717 73.4385 28.641 74.0089V74.011Z" fill="#FFFBF0"/>
<path d="M101.223 74.1159C100.693 73.5434 99.4472 72.2041 98.6052 70.098C98.0265 68.648 97.7173 67.1081 97.6859 65.5202H97.757L97.6859 65.516C97.7173 63.9281 98.0265 62.3883 98.6052 60.9383C99.4472 58.8322 100.69 57.4929 101.223 56.9204L102.172 57.8021C101.649 58.3662 100.559 59.5384 99.8087 61.4209C99.2864 62.7267 99.0085 64.112 98.9813 65.5411C99.0147 66.9556 99.2926 68.3262 99.8087 69.6175C100.561 71.5 101.649 72.6721 102.172 73.2362L101.223 74.1179V74.1159Z" fill="#FFFBF0"/>
<path d="M56.8516 102.224L55.9698 101.275C56.5423 100.744 57.8816 99.4991 59.9877 98.6571C61.4377 98.0784 62.9776 97.7691 64.5655 97.7378V97.8214L64.5697 97.7378C66.1576 97.7691 67.6974 98.0784 69.1474 98.6592C71.2535 99.4991 72.5928 100.744 73.1653 101.277L72.2836 102.226C71.7194 101.703 70.5473 100.613 68.6648 99.8627C67.3757 99.3466 66.005 99.0687 64.5906 99.0353C63.1593 99.0645 61.772 99.3424 60.4682 99.8627C58.5857 100.615 57.4136 101.703 56.8495 102.226L56.8516 102.224Z" fill="#FFFBF0"/>
<path d="M46.6741 52.5471C46.4819 52.5471 46.2918 52.4615 46.1643 52.3006C45.2805 51.1765 44.4552 50.0023 43.7156 48.8093C43.1389 47.8795 42.6834 47.144 42.2363 46.1307C41.6701 44.8478 41.2836 43.4898 41.0851 42.0962C41.0349 41.743 41.2815 41.415 41.6346 41.3649C41.9877 41.3147 42.3157 41.5613 42.3659 41.9144C42.5476 43.191 42.9028 44.4341 43.421 45.6084C43.8305 46.5381 44.2651 47.2381 44.8167 48.126C45.5312 49.2773 46.3273 50.4118 47.1839 51.5004C47.4054 51.7824 47.3553 52.1878 47.0753 52.4092C46.9562 52.5033 46.8162 52.5471 46.6762 52.5471H46.6741Z" fill="#FFFBF0"/>
<path d="M51.9247 48.3032C51.7283 48.3032 51.534 48.2155 51.4087 48.0462C50.6648 47.0642 49.7309 46.2076 48.6319 45.5014C47.7564 44.9394 46.9458 44.5863 45.9199 44.1391C44.5848 43.5604 43.1599 43.0401 41.6827 42.5951C41.34 42.4927 41.1457 42.1313 41.2502 41.7886C41.3526 41.4459 41.7161 41.2537 42.0567 41.3561C43.5819 41.8137 45.0549 42.3506 46.436 42.9524C47.5162 43.4225 48.3686 43.7923 49.3318 44.4107C50.5604 45.2005 51.6051 46.1595 52.4408 47.2648C52.656 47.549 52.5996 47.9564 52.3154 48.1716C52.1984 48.2594 52.0626 48.3032 51.9247 48.3032Z" fill="#FFFBF0"/>
<path d="M83.4385 52.4822C83.2985 52.4822 83.1565 52.4362 83.0395 52.3443C82.7574 52.1228 82.7093 51.7154 82.9308 51.4354C83.7874 50.3469 84.5835 49.2103 85.296 48.0611C85.9061 47.0791 86.2989 46.4335 86.6917 45.5434C87.2098 44.3692 87.565 43.126 87.7468 41.8494C87.7969 41.4963 88.125 41.2498 88.4781 41.2999C88.8312 41.3501 89.0777 41.6781 89.0276 42.0312C88.8291 43.4269 88.4425 44.7829 87.8763 46.0658C87.4271 47.0833 86.9716 47.8166 86.3971 48.7443C85.6595 49.9332 84.8342 51.1074 83.9483 52.2356C83.8209 52.3986 83.6307 52.4822 83.4385 52.4822Z" fill="#FFFBF0"/>
<path d="M78.1859 48.2367C78.0501 48.2367 77.9122 48.1949 77.7952 48.105C77.509 47.8898 77.4526 47.4845 77.6699 47.1982C78.5056 46.093 79.5524 45.134 80.7788 44.3442C81.742 43.7236 82.5945 43.3538 83.6747 42.8837C85.0578 42.2841 86.5308 41.7471 88.054 41.2895C88.3987 41.1872 88.7581 41.3815 88.8605 41.722C88.9629 42.0647 88.7685 42.4261 88.428 42.5285C86.9529 42.9715 85.528 43.4917 84.1908 44.0705C83.1649 44.5155 82.3542 44.8686 81.4788 45.4327C80.3798 46.1389 79.4458 46.9956 78.702 47.9776C78.5746 48.1468 78.3802 48.2346 78.1859 48.2346V48.2367Z" fill="#FFFBF0"/>
<path d="M41.34 89.3261C41.0225 89.3261 40.7467 89.0921 40.7007 88.7703C40.6505 88.4172 40.8971 88.0892 41.2502 88.039C42.5268 87.8572 43.77 87.5021 44.9442 86.9839C45.876 86.5723 46.576 86.1377 47.4619 85.5882C48.6089 84.8757 49.7434 84.0797 50.8362 83.223C51.1182 83.0016 51.5236 83.0496 51.745 83.3317C51.9665 83.6138 51.9164 84.0212 51.6364 84.2406C50.5081 85.1285 49.3339 85.9517 48.1451 86.6893C47.2153 87.266 46.4819 87.7214 45.4686 88.1686C44.1857 88.7348 42.8277 89.1213 41.4341 89.3198C41.4027 89.324 41.3714 89.3261 41.3421 89.3261H41.34Z" fill="#FFFBF0"/>
<path d="M41.3108 89.1796C41.2481 89.1796 41.1854 89.1712 41.1248 89.1524C40.7822 89.05 40.5879 88.6886 40.6923 88.3459C41.1499 86.8207 41.6869 85.3477 42.2865 83.9666C42.7545 82.8864 43.1264 82.0361 43.747 81.0708C44.5367 79.8443 45.4958 78.7975 46.601 77.9618C46.8852 77.7466 47.2926 77.803 47.5078 78.0872C47.723 78.3713 47.6666 78.7787 47.3825 78.9939C46.4005 79.7378 45.5438 80.6717 44.8376 81.7707C44.2735 82.6482 43.9225 83.4568 43.4753 84.4827C42.8966 85.8178 42.3763 87.2427 41.9334 88.7199C41.8498 88.9999 41.5928 89.1817 41.3129 89.1817L41.3108 89.1796Z" fill="#FFFBF0"/>
<path d="M88.3068 89.3426C88.2754 89.3426 88.2462 89.3426 88.2148 89.3363C86.8212 89.1378 85.4631 88.7492 84.1803 88.1851C83.2087 87.7568 82.5297 87.3431 81.5017 86.7058C80.3087 85.9662 79.1345 85.1409 78.0104 84.2571C77.7283 84.0356 77.6803 83.6282 77.9018 83.3482C78.1253 83.0683 78.5307 83.0202 78.8106 83.2396C79.8971 84.0941 81.0316 84.8902 82.1829 85.6047C83.1628 86.2127 83.8084 86.6076 84.7005 87.0004C85.8748 87.5186 87.1179 87.8738 88.3945 88.0556C88.7476 88.1057 88.9942 88.4337 88.944 88.7868C88.8981 89.1107 88.6202 89.3426 88.3047 89.3426H88.3068Z" fill="#FFFBF0"/>
<path d="M88.3339 89.1987C88.0561 89.1987 87.7991 89.0169 87.7134 88.7369C87.2705 87.2597 86.7502 85.8348 86.1694 84.4997C85.7243 83.4738 85.3712 82.6632 84.8092 81.7877C84.103 80.6887 83.2464 79.7548 82.2623 79.011C81.976 78.7958 81.9196 78.3883 82.1369 78.1042C82.3521 77.82 82.7574 77.7615 83.0437 77.9788C84.149 78.8146 85.1101 79.8613 85.8978 81.0878C86.5183 82.051 86.8881 82.9055 87.3561 83.9836C87.9558 85.3647 88.4927 86.8398 88.9524 88.3629C89.0548 88.7056 88.8605 89.067 88.5178 89.1694C88.4551 89.1882 88.3924 89.1966 88.3319 89.1966L88.3339 89.1987Z" fill="#FFFBF0"/>
<path d="M65.0826 58.1785C66.0667 58.0811 66.7855 57.2044 66.6882 56.2203C66.5908 55.2362 65.7141 54.5174 64.73 54.6147C63.7459 54.7121 63.027 55.5888 63.1244 56.5729C63.2218 57.557 64.0985 58.2759 65.0826 58.1785Z" fill="#FFFBF0"/>
<path d="M74.0398 66.7073C75.024 66.6099 75.7428 65.7332 75.6454 64.7491C75.5481 63.765 74.6714 63.0462 73.6873 63.1435C72.7032 63.2409 71.9843 64.1176 72.0817 65.1017C72.179 66.0858 73.0557 66.8047 74.0398 66.7073Z" fill="#FFFBF0"/>
<path d="M65.1624 75.6092C66.1465 75.5118 66.8654 74.6351 66.768 73.651C66.6706 72.6669 65.7939 71.948 64.8098 72.0454C63.8257 72.1428 63.1069 73.0195 63.2042 74.0036C63.3016 74.9877 64.1783 75.7065 65.1624 75.6092Z" fill="#FFFBF0"/>
<path d="M56.1672 66.9256C57.1513 66.8282 57.8701 65.9515 57.7728 64.9674C57.6754 63.9833 56.7987 63.2644 55.8146 63.3618C54.8305 63.4592 54.1116 64.3359 54.209 65.32C54.3064 66.3041 55.1831 67.0229 56.1672 66.9256Z" fill="#FFFBF0"/>
<path d="M13.3489 79.8888C13.3552 79.916 13.3531 79.941 13.3447 79.9661C13.3364 79.9912 13.328 80.0037 13.3197 80.0058C12.6323 80.0706 12.0096 80.1667 11.456 80.292C11.3849 80.3088 11.3327 80.3067 11.2951 80.2879C11.2575 80.2691 11.2303 80.2189 11.2136 80.1395L9.90775 74.4147C9.90148 74.3875 9.92446 74.3687 9.97669 74.3562C10.0289 74.3436 10.0582 74.352 10.0644 74.3771C10.1334 74.6758 10.2044 74.889 10.2797 75.0143C10.3549 75.1397 10.4614 75.2128 10.5993 75.2316C10.7372 75.2504 10.9399 75.2316 11.2031 75.171L17.3103 73.7774C17.5736 73.7168 17.7617 73.6479 17.8745 73.5727C17.9873 73.4954 18.05 73.3825 18.0667 73.23C18.0834 73.0775 18.0583 72.8581 17.9915 72.5677C17.9852 72.5405 18.0082 72.5217 18.0604 72.5092C18.1127 72.4966 18.1419 72.505 18.1482 72.5301L19.4018 78.0167C19.4227 78.1045 19.3934 78.1567 19.314 78.1755L17.6049 78.5934C17.5882 78.5976 17.5694 78.5767 17.5485 78.5307C17.5276 78.4847 17.5318 78.4534 17.5548 78.4388C18.5096 77.9979 18.8711 77.2729 18.6392 76.2617L18.518 75.7331C18.4449 75.4176 18.3362 75.2045 18.1921 75.1C18.0479 74.9934 17.839 74.9725 17.5673 75.0352L14.8762 75.6495L15.1646 76.9156C15.386 77.883 15.8206 78.2925 16.4725 78.1442C16.4997 78.1379 16.5164 78.1588 16.5289 78.2069C16.5394 78.2549 16.5331 78.2821 16.5059 78.2883L15.3547 78.537L14.7383 78.6916C14.4605 78.7731 14.2348 78.8337 14.0593 78.8755C14.0426 78.8796 14.0259 78.8546 14.0154 78.8023C14.005 78.7501 14.0071 78.7208 14.0238 78.7167C14.7801 78.5432 15.0455 77.9645 14.8219 76.9804L14.5357 75.7268L11.5416 76.41C11.2512 76.4769 11.0611 76.5772 10.9733 76.713C10.8835 76.8488 10.8709 77.0577 10.9357 77.3398L11.0841 77.9854C11.3536 79.1638 12.0953 79.7801 13.3113 79.8366C13.328 79.8324 13.3406 79.847 13.3489 79.8825V79.8888Z" fill="#FFFBF0"/>
<path d="M19.0737 83.9506C18.9045 84.2055 18.7833 84.4855 18.7081 84.7884C18.6329 85.0914 18.5619 85.4904 18.4908 85.9835C18.4093 86.5205 18.3278 86.953 18.2443 87.2789C18.1607 87.6049 18.0165 87.9141 17.8139 88.2045C17.6112 88.4949 17.3229 88.7206 16.951 88.8836C16.5289 89.0674 16.1048 89.1217 15.6785 89.0465C15.2523 88.9713 14.8595 88.7749 14.498 88.4552C14.1366 88.1356 13.8441 87.7198 13.6205 87.2058C13.4701 86.859 13.3593 86.4808 13.2883 86.0734C13.2194 85.6659 13.2089 85.3379 13.2591 85.0893C13.2758 84.9932 13.3364 84.918 13.4408 84.8636L15.2941 83.9673L15.3066 83.961C15.3401 83.9464 15.3672 83.961 15.3902 83.9986C15.4132 84.0383 15.409 84.0697 15.3798 84.0927C14.8115 84.6651 14.3873 85.2209 14.1011 85.7641C13.8169 86.3074 13.7918 86.8506 14.03 87.3959C14.1846 87.7511 14.4124 88.006 14.7112 88.1627C15.0099 88.3173 15.386 88.2964 15.8415 88.098C16.2051 87.9392 16.4892 87.7198 16.6919 87.4398C16.8945 87.1598 17.0345 86.8611 17.1139 86.5477C17.1933 86.2322 17.2769 85.8143 17.3647 85.294C17.4482 84.7863 17.5297 84.381 17.6091 84.0801C17.6885 83.7793 17.8264 83.493 18.0186 83.2235C18.2108 82.9519 18.4804 82.7408 18.8272 82.5904C19.2576 82.4024 19.6734 82.3648 20.0746 82.4734C20.4757 82.5841 20.833 82.7993 21.1464 83.1211C21.4577 83.4429 21.7063 83.8148 21.8902 84.2347C22.0135 84.5147 22.1075 84.8093 22.1764 85.1123C22.2454 85.4173 22.2788 85.6827 22.2809 85.9083C22.2851 86.0546 22.2329 86.1507 22.1263 86.1966L20.4548 86.9697C20.4297 86.9802 20.4026 86.9655 20.3754 86.9237C20.3462 86.882 20.3441 86.8506 20.365 86.8318C20.7975 86.4474 21.1568 86.0253 21.4452 85.5698C21.7335 85.1144 21.7565 84.6087 21.5162 84.055C21.3532 83.6831 21.1171 83.4345 20.8079 83.3091C20.4966 83.1838 20.156 83.2026 19.7841 83.3635C19.4791 83.4972 19.2409 83.6915 19.0717 83.9464L19.0737 83.9506Z" fill="#FFFBF0"/>
<path d="M23.8814 90.1897C23.4009 90.0915 22.8242 90.1605 22.1535 90.3986C22.1389 90.4091 22.118 90.3945 22.0888 90.3527C22.0595 90.3109 22.0574 90.2837 22.0804 90.2691C22.3896 90.0978 22.7845 89.87 23.2651 89.5901C23.7456 89.3101 24.1008 89.0886 24.3306 88.9298C24.3683 88.9048 24.3996 88.911 24.4288 88.9528C24.4581 88.9925 24.4539 89.0259 24.4163 89.0531C24.2533 89.1659 24.316 89.4313 24.6064 89.845C25.0285 90.4968 25.5362 91.2469 26.1296 92.0973C26.4346 92.534 26.7648 92.9915 27.1199 93.4679L27.6569 94.2138C27.8533 94.4938 28.0142 94.6881 28.1416 94.7905C28.2691 94.8949 28.4007 94.9263 28.5386 94.8845C28.5741 94.872 28.6034 94.8845 28.6285 94.92C28.6535 94.9576 28.6514 94.9869 28.6222 95.0057C28.3777 95.1436 28.0142 95.363 27.5336 95.668C27.0531 95.971 26.6666 96.2238 26.3782 96.4244C26.3552 96.439 26.3302 96.4265 26.303 96.3868C26.2738 96.345 26.2696 96.3136 26.2863 96.2906C26.8044 95.8184 27.1032 95.3525 27.1805 94.8908C27.2599 94.429 27.1367 93.9652 26.8107 93.4993C26.6666 93.2924 26.5412 93.1524 26.4346 93.0772C26.3281 93.0041 26.2173 92.9811 26.1003 93.0124C25.9833 93.0438 25.8266 93.1294 25.6281 93.2673L20.5134 96.8381C20.2836 96.9989 20.1331 97.1368 20.06 97.2538C19.9869 97.3708 19.9785 97.5087 20.0349 97.6675C20.0913 97.8263 20.2188 98.0499 20.4215 98.3382C20.4361 98.3612 20.4215 98.3863 20.3776 98.4176C20.3337 98.449 20.3024 98.4531 20.2877 98.4301C20.106 98.1711 19.9681 97.9663 19.872 97.8117L19.2472 96.8945L18.633 96.0378C18.518 95.8874 18.3634 95.6764 18.1733 95.4027C18.1629 95.388 18.1796 95.3651 18.2234 95.3337C18.2673 95.3024 18.2945 95.294 18.3049 95.3086C18.5055 95.597 18.6727 95.7976 18.8064 95.9083C18.938 96.019 19.0759 96.0608 19.2159 96.0357C19.3559 96.0086 19.5377 95.9187 19.7591 95.7641L24.8948 92.1788C25.087 92.0451 25.2144 91.9281 25.2771 91.8299C25.3398 91.7317 25.3565 91.6209 25.3273 91.4977C25.298 91.3765 25.2124 91.2156 25.0724 91.015C24.7569 90.5637 24.3599 90.29 23.8773 90.1897H23.8814Z" fill="#FFFBF0"/>
<path d="M30.3375 108.891C30.2999 108.931 30.2644 108.935 30.2331 108.904C30.1077 108.787 29.9134 108.59 29.6501 108.319C29.3869 108.045 29.1926 107.85 29.0672 107.733C28.9021 107.579 28.7037 107.403 28.4676 107.205C28.2315 107.008 28.0518 106.85 27.9264 106.733C27.8993 106.708 27.9055 106.676 27.9431 106.637C27.9807 106.597 28.0121 106.591 28.0392 106.616C28.2294 106.795 28.3882 106.906 28.5177 106.946C28.6472 106.988 28.758 106.958 28.8499 106.86C28.9418 106.762 29.0442 106.543 29.155 106.2L29.8361 103.979L27.4542 101.733L25.9791 102.351C25.7075 102.468 25.4986 102.604 25.3502 102.763C25.1329 102.993 25.0515 103.243 25.1037 103.517C25.1559 103.791 25.3314 104.065 25.626 104.345C25.6595 104.376 25.6574 104.411 25.6198 104.449C25.5822 104.487 25.5487 104.493 25.5153 104.462C25.3962 104.351 25.2332 104.184 25.0222 103.96C24.7861 103.711 24.5751 103.5 24.3912 103.327C24.2136 103.16 24.0005 102.972 23.7519 102.763C23.5283 102.579 23.3486 102.42 23.2107 102.291C23.1773 102.259 23.1794 102.224 23.217 102.186C23.2546 102.149 23.2901 102.142 23.3215 102.174C23.5053 102.347 23.6934 102.456 23.8856 102.502C24.0778 102.548 24.3223 102.531 24.6169 102.456C24.9115 102.381 25.3126 102.236 25.8245 102.023L32.4332 99.2549C32.4645 99.2465 32.5042 99.2653 32.5502 99.3092C32.5961 99.3531 32.6129 99.3865 32.6003 99.4137L30.4274 106.551C30.2122 107.24 30.0994 107.744 30.0889 108.064C30.0785 108.383 30.162 108.626 30.3396 108.793C30.3731 108.824 30.371 108.86 30.3334 108.897L30.3375 108.891ZM27.7969 101.587L29.9531 103.62L30.9832 100.258L27.7969 101.587Z" fill="#FFFBF0"/>
<path d="M40.6611 110.799C40.8261 111.382 40.753 111.938 40.4375 112.462C40.1972 112.866 39.8671 113.164 39.4492 113.361C39.0314 113.557 38.5717 113.634 38.0661 113.591C37.5605 113.547 37.0695 113.382 36.5889 113.093C36.3653 112.96 36.1125 112.792 35.8326 112.594C35.7364 112.525 35.6132 112.441 35.4627 112.341C35.3123 112.241 35.141 112.132 34.9467 112.017L34.1047 111.528C33.9521 111.449 33.7495 111.332 33.4946 111.179C33.4716 111.165 33.4737 111.136 33.5008 111.09C33.528 111.044 33.5552 111.027 33.5781 111.042C33.8268 111.19 34.0253 111.28 34.1736 111.311C34.3219 111.342 34.4557 111.319 34.5706 111.242C34.6855 111.163 34.8129 111.008 34.9508 110.776L38.1664 105.4C38.3001 105.177 38.3753 104.993 38.392 104.851C38.4087 104.709 38.369 104.579 38.275 104.466C38.181 104.351 38.0097 104.22 37.761 104.074C37.7443 104.065 37.7527 104.036 37.7798 103.99C37.807 103.944 37.83 103.925 37.8446 103.934L38.4422 104.305C38.7723 104.525 39.0439 104.696 39.2528 104.822C39.4701 104.951 39.7041 105.076 39.959 105.196C40.0489 105.239 40.1554 105.292 40.2808 105.356C40.4062 105.421 40.5441 105.498 40.7008 105.59C41.3903 106.002 41.8374 106.449 42.0442 106.93C42.2511 107.41 42.2093 107.891 41.923 108.371C41.7016 108.743 41.3798 109.007 40.9619 109.161C40.5441 109.316 40.0635 109.345 39.5203 109.253C40.1137 109.702 40.4918 110.218 40.659 110.801L40.6611 110.799ZM39.0982 112.04C39.4492 111.451 39.5788 110.889 39.4868 110.35C39.3949 109.811 39.0543 109.366 38.4652 109.013C38.1873 108.846 37.9491 108.716 37.7548 108.62L36.0666 111.441C35.96 111.618 35.8994 111.773 35.8869 111.9C35.8723 112.028 35.9161 112.157 36.0185 112.287C36.1188 112.416 36.3027 112.558 36.5659 112.717C37.6106 113.342 38.4547 113.118 39.0982 112.042V112.04ZM39.771 105.553C39.6227 105.601 39.4555 105.778 39.2696 106.088L37.9491 108.294L38.4296 108.597C38.8872 108.871 39.3197 108.927 39.7313 108.768C40.1429 108.61 40.4876 108.294 40.7718 107.822C41.0351 107.381 41.1354 106.978 41.0685 106.612C41.0037 106.246 40.7697 105.944 40.3665 105.703C40.1178 105.555 39.9193 105.505 39.771 105.553Z" fill="#FFFBF0"/>
<path d="M45.7486 116.165C45.6671 116.394 45.6274 116.566 45.6274 116.683C45.6274 116.798 45.6797 116.894 45.7779 116.967C45.8761 117.04 46.0474 117.121 46.294 117.209L47.0587 117.483C47.6625 117.698 48.2308 117.713 48.7678 117.527C49.3047 117.341 49.7414 116.988 50.082 116.465C50.0987 116.442 50.1279 116.442 50.1697 116.461C50.2115 116.48 50.2261 116.503 50.2178 116.528C49.8563 117.299 49.5805 117.949 49.3925 118.475C49.3674 118.544 49.3382 118.588 49.3026 118.609C49.2671 118.63 49.2107 118.626 49.1334 118.599L43.1724 116.465C43.1557 116.459 43.1557 116.43 43.1724 116.38C43.1913 116.33 43.208 116.307 43.2247 116.313C43.513 116.415 43.7303 116.47 43.8786 116.474C44.0249 116.478 44.144 116.428 44.2359 116.321C44.3258 116.215 44.4177 116.035 44.5096 115.78L46.6199 109.882C46.7118 109.627 46.7536 109.433 46.7494 109.297C46.7453 109.161 46.6826 109.046 46.5635 108.95C46.4444 108.854 46.2438 108.758 45.9638 108.657C45.9471 108.651 45.9471 108.622 45.9638 108.572C45.9805 108.522 45.9994 108.499 46.0161 108.505L46.6617 108.749C47.0294 108.9 47.3324 109.019 47.5705 109.102C47.8255 109.194 48.143 109.297 48.5233 109.414L49.1647 109.629C49.1898 109.637 49.194 109.669 49.1752 109.719C49.1564 109.769 49.1355 109.79 49.1104 109.782C48.8304 109.681 48.6152 109.631 48.4669 109.631C48.3185 109.631 48.1994 109.683 48.1075 109.79C48.0156 109.896 47.9257 110.076 47.8338 110.331L45.7465 116.165H45.7486Z" fill="#FFFBF0"/>
<path d="M55.7252 119.537C55.7461 119.668 55.8214 119.771 55.9509 119.84C56.0804 119.909 56.2956 119.971 56.5986 120.026C56.6258 120.03 56.6341 120.059 56.6237 120.113C56.6132 120.166 56.5965 120.191 56.5693 120.187C56.2852 120.134 56.0595 120.088 55.8924 120.049L54.9104 119.856L53.9493 119.696C53.78 119.675 53.5481 119.635 53.2556 119.583C53.2285 119.579 53.2201 119.549 53.2305 119.495C53.241 119.443 53.2577 119.418 53.2849 119.422C53.5857 119.476 53.8093 119.495 53.9556 119.476C54.1018 119.457 54.2125 119.388 54.2899 119.269C54.3672 119.15 54.4298 118.958 54.4779 118.693L55.602 112.531C55.65 112.266 55.6584 112.065 55.6291 111.931C55.5978 111.798 55.5184 111.693 55.3909 111.62C55.2614 111.547 55.0462 111.482 54.7453 111.428C54.7182 111.424 54.7098 111.395 54.7203 111.34C54.7307 111.288 54.7474 111.263 54.7746 111.267L55.4641 111.407C55.8506 111.497 56.1682 111.564 56.4168 111.608C56.6926 111.658 57.0269 111.71 57.4197 111.762L58.0883 111.871C58.1155 111.875 58.1238 111.904 58.1134 111.959C58.1029 112.011 58.0862 112.036 58.0591 112.032C57.7666 111.977 57.5451 111.965 57.3988 111.994C57.2505 112.021 57.1418 112.097 57.0687 112.216C56.9956 112.335 56.9371 112.529 56.8869 112.794L55.767 118.931C55.7169 119.207 55.7023 119.409 55.7252 119.541V119.537Z" fill="#FFFBF0"/>
<path d="M62.825 114.62C62.9859 114.881 63.1865 115.109 63.4309 115.306C63.6754 115.5 64.0055 115.734 64.4234 116.005C64.8768 116.304 65.234 116.561 65.4952 116.776C65.7564 116.992 65.9758 117.251 66.1534 117.556C66.331 117.863 66.4145 118.218 66.4062 118.623C66.3957 119.083 66.2662 119.491 66.0176 119.846C65.7689 120.201 65.4242 120.475 64.9833 120.667C64.5404 120.859 64.041 120.949 63.4811 120.936C63.1029 120.928 62.7143 120.867 62.3152 120.759C61.9161 120.65 61.6153 120.521 61.4105 120.372C61.3311 120.316 61.2872 120.23 61.281 120.111L61.2496 118.053V118.038C61.2496 118.003 61.2747 117.982 61.3186 117.98C61.3646 117.976 61.3896 117.992 61.398 118.03C61.678 118.786 62.0039 119.407 62.3758 119.894C62.7477 120.381 63.2304 120.631 63.8258 120.646C64.2124 120.654 64.5404 120.558 64.8078 120.351C65.0753 120.147 65.2131 119.796 65.2257 119.298C65.234 118.901 65.1547 118.552 64.9875 118.252C64.8183 117.951 64.6093 117.696 64.3565 117.493C64.1037 117.29 63.761 117.038 63.3265 116.737C62.9002 116.446 62.568 116.202 62.3298 116.003C62.0916 115.803 61.889 115.56 61.7239 115.272C61.5589 114.984 61.4816 114.649 61.4899 114.271C61.5004 113.803 61.6403 113.408 61.9099 113.091C62.1794 112.773 62.5262 112.539 62.9483 112.391C63.3703 112.243 63.8133 112.176 64.2729 112.186C64.5801 112.194 64.8851 112.23 65.1902 112.297C65.4952 112.364 65.7501 112.443 65.9549 112.539C66.0886 112.596 66.1554 112.683 66.1513 112.8L66.1471 114.641C66.1471 114.668 66.122 114.685 66.0719 114.693C66.0217 114.702 65.9925 114.693 65.9841 114.664C65.817 114.11 65.5871 113.605 65.2967 113.151C65.0042 112.698 64.5571 112.464 63.9533 112.449C63.5479 112.439 63.222 112.55 62.9775 112.777C62.7331 113.007 62.6056 113.323 62.5952 113.73C62.5868 114.064 62.6641 114.361 62.825 114.622V114.62Z" fill="#FFFBF0"/>
<path d="M80.1479 118.841C80.1583 118.893 80.1479 118.923 80.1228 118.929C79.8219 118.985 79.5775 119.029 79.3894 119.054L78.4158 119.226L77.2875 119.453C77.1308 119.493 76.9177 119.537 76.6523 119.587C76.6252 119.591 76.6085 119.568 76.598 119.516C76.5876 119.464 76.598 119.435 76.6231 119.428C76.9595 119.364 77.1998 119.297 77.3418 119.224C77.4839 119.15 77.5696 119.048 77.5988 118.912C77.6281 118.779 77.6176 118.574 77.5654 118.298L76.9804 115.229L72.4214 116.096L73.0064 119.165C73.0566 119.43 73.1213 119.623 73.1986 119.742C73.2759 119.861 73.3971 119.928 73.5601 119.942C73.7231 119.957 73.9738 119.932 74.3102 119.869C74.3269 119.865 74.3415 119.89 74.352 119.944C74.3624 119.997 74.3582 120.026 74.3415 120.03C74.0406 120.087 73.8045 120.128 73.6353 120.151L72.53 120.348L71.5627 120.546C71.3955 120.588 71.1615 120.636 70.8606 120.695C70.8439 120.699 70.8293 120.674 70.8189 120.619C70.8084 120.567 70.8126 120.538 70.8293 120.534C71.149 120.473 71.3788 120.406 71.5209 120.333C71.663 120.26 71.7486 120.153 71.7779 120.015C71.8071 119.878 71.7946 119.675 71.7444 119.41L70.5723 113.256C70.5222 112.991 70.4574 112.801 70.3822 112.686C70.3049 112.573 70.1879 112.504 70.027 112.485C69.8661 112.467 69.6321 112.485 69.3229 112.544C69.3041 112.548 69.2915 112.523 69.2811 112.469C69.2706 112.416 69.2748 112.387 69.2915 112.383L69.9977 112.262C70.4093 112.201 70.729 112.149 70.9588 112.105C71.2681 112.047 71.6358 111.967 72.0578 111.869L72.7599 111.721C72.7766 111.717 72.7912 111.742 72.8017 111.796C72.8121 111.848 72.8079 111.877 72.7912 111.882C72.4632 111.944 72.2271 112.017 72.0829 112.099C71.9388 112.182 71.8489 112.293 71.8155 112.431C71.7821 112.571 71.7904 112.774 71.8406 113.039L72.3566 115.751L76.9156 114.884L76.3995 112.172C76.3494 111.907 76.2846 111.714 76.2073 111.595C76.13 111.476 76.0088 111.405 75.8438 111.382C75.6787 111.359 75.4322 111.378 75.1041 111.441C75.077 111.445 75.0603 111.422 75.0498 111.368C75.0394 111.315 75.0498 111.286 75.0749 111.28L75.7163 111.171C76.1446 111.109 76.5228 111.046 76.8508 110.983C77.089 110.937 77.4108 110.868 77.8161 110.772L78.5453 110.62C78.5725 110.615 78.5913 110.638 78.5996 110.691C78.6101 110.743 78.5996 110.772 78.5746 110.778C78.2549 110.839 78.0271 110.908 77.8913 110.985C77.7555 111.063 77.672 111.167 77.6406 111.301C77.6114 111.434 77.6218 111.635 77.672 111.9L78.8441 118.054C78.8942 118.319 78.959 118.511 79.0363 118.63C79.1136 118.749 79.2306 118.816 79.3852 118.833C79.5398 118.85 79.7759 118.827 80.0956 118.766C80.1228 118.762 80.1395 118.785 80.1499 118.839L80.1479 118.841Z" fill="#FFFBF0"/>
<path d="M89.0695 113.062C89.0945 113.051 89.1196 113.047 89.1468 113.051C89.1719 113.055 89.1886 113.059 89.1907 113.068C89.3808 113.732 89.5897 114.326 89.8154 114.846C89.8446 114.913 89.853 114.965 89.8405 115.005C89.8279 115.044 89.784 115.08 89.7109 115.113L84.3245 117.451C84.2995 117.462 84.2765 117.443 84.2556 117.393C84.2347 117.343 84.2347 117.313 84.2598 117.303C84.5418 117.182 84.7361 117.071 84.8469 116.975C84.9576 116.879 85.0098 116.76 85.0015 116.62C84.9952 116.48 84.9388 116.285 84.8302 116.037L82.3355 110.291C82.2268 110.042 82.1265 109.871 82.0304 109.775C81.9343 109.679 81.811 109.637 81.6585 109.65C81.506 109.662 81.2929 109.727 81.0213 109.846C80.9962 109.856 80.9732 109.838 80.9523 109.788C80.9314 109.737 80.9335 109.708 80.9565 109.698L86.1193 107.456C86.2029 107.42 86.2593 107.439 86.2927 107.514L87.0177 109.117C87.0261 109.134 87.0073 109.157 86.9655 109.184C86.9237 109.211 86.8924 109.215 86.8736 109.194C86.2656 108.338 85.4862 108.116 84.5335 108.528L84.0362 108.743C83.7374 108.872 83.5515 109.019 83.4742 109.18C83.3969 109.34 83.4136 109.549 83.5243 109.806L84.6233 112.339L85.8143 111.82C86.7252 111.426 87.047 110.922 86.7816 110.31C86.7712 110.285 86.7879 110.262 86.8339 110.243C86.8798 110.224 86.907 110.226 86.9174 110.251L87.3729 111.336L87.6383 111.915C87.7699 112.172 87.8723 112.385 87.9433 112.55C87.9517 112.566 87.9287 112.585 87.8806 112.606C87.8305 112.627 87.8033 112.631 87.795 112.614C87.4857 111.902 86.8673 111.747 85.9417 112.151L84.7633 112.663L85.9856 115.479C86.1047 115.753 86.2384 115.92 86.3888 115.982C86.5393 116.045 86.7461 116.02 87.0115 115.903L87.6195 115.64C88.7289 115.159 89.199 114.315 89.0298 113.112C89.0235 113.095 89.036 113.08 89.0695 113.066V113.062Z" fill="#FFFBF0"/>
<path d="M96.2986 111.233C96.1837 111.304 96.0395 111.396 95.864 111.511C95.6885 111.626 95.4963 111.758 95.2832 111.91L94.5101 112.48C94.3764 112.587 94.1842 112.731 93.9355 112.909C93.9209 112.919 93.8979 112.903 93.8666 112.859C93.8352 112.815 93.8269 112.788 93.8415 112.777C94.0901 112.6 94.2594 112.451 94.3471 112.332C94.4349 112.215 94.4621 112.086 94.4307 111.948C94.3994 111.81 94.3033 111.63 94.1466 111.411L90.5006 106.317C90.3439 106.097 90.2081 105.949 90.0932 105.876C89.9804 105.803 89.8487 105.788 89.7025 105.83C89.5562 105.874 89.3619 105.983 89.1196 106.156C89.1049 106.166 89.0819 106.15 89.0506 106.106C89.0193 106.062 89.0109 106.035 89.0255 106.024L89.6168 105.617C89.949 105.402 90.2123 105.224 90.4024 105.088C90.6949 104.879 90.9854 104.654 91.2695 104.418C91.6268 104.14 91.8671 103.958 91.9903 103.868C92.7383 103.333 93.5072 103.005 94.297 102.884C95.0868 102.763 95.8222 102.84 96.5034 103.118C97.1845 103.396 97.7507 103.849 98.202 104.48C98.7118 105.193 98.996 105.939 99.0566 106.722C99.1171 107.506 98.9751 108.243 98.6303 108.941C98.2856 109.639 97.78 110.224 97.1114 110.702C96.8836 110.865 96.612 111.043 96.2965 111.237L96.2986 111.233ZM97.9346 109.229C98.154 108.707 98.2041 108.13 98.085 107.499C97.9659 106.868 97.6713 106.223 97.1991 105.563C96.7478 104.932 96.2359 104.436 95.6613 104.077C95.0868 103.718 94.5038 103.525 93.9105 103.5C93.3171 103.475 92.7655 103.645 92.2599 104.008C91.9527 104.227 91.7271 104.418 91.585 104.574C91.4429 104.731 91.3677 104.888 91.3614 105.042C91.3552 105.197 91.4262 105.377 91.5725 105.581L95.116 110.533C95.3312 110.834 95.5611 110.993 95.8076 111.012C96.0541 111.03 96.3989 110.878 96.8481 110.558C97.3537 110.197 97.7173 109.754 97.9367 109.232L97.9346 109.229Z" fill="#FFFBF0"/>
<path d="M106.043 102.725C106.002 102.69 105.987 102.664 106 102.652C106.259 102.351 106.434 102.107 106.528 101.921C106.622 101.735 106.649 101.563 106.61 101.411C106.57 101.258 106.449 101.095 106.25 100.926L102.429 97.6521C101.963 97.253 101.637 97.1632 101.449 97.3826C101.309 97.5476 101.213 97.9216 101.161 98.5087L101.152 98.538C101.129 98.5652 101.096 98.5735 101.054 98.561C101.012 98.5484 100.989 98.5296 100.987 98.5046L101.259 95.2974C101.269 95.2577 101.282 95.2284 101.301 95.2076C101.313 95.1929 101.332 95.1867 101.357 95.1846C101.382 95.1846 101.403 95.1867 101.416 95.1992L107.036 100.015C107.241 100.191 107.418 100.289 107.567 100.31C107.715 100.331 107.874 100.281 108.045 100.157C108.216 100.034 108.432 99.8209 108.695 99.5116C108.712 99.4907 108.741 99.4991 108.783 99.5346C108.824 99.5701 108.835 99.5973 108.818 99.6182C108.584 99.8919 108.396 100.105 108.254 100.258L107.452 101.173L106.695 102.075C106.562 102.247 106.371 102.474 106.125 102.763C106.112 102.777 106.087 102.765 106.046 102.731L106.043 102.725Z" fill="#FFFBF0"/>
<path d="M112.268 94.531C112.284 94.5895 112.272 94.6522 112.228 94.7211L111.714 95.5485C111.685 95.5945 111.647 95.6237 111.597 95.6342C111.547 95.6467 111.507 95.6258 111.476 95.5736L107.165 89.1739C107.13 89.1091 107.094 89.1091 107.057 89.1697C106.353 90.3042 105.887 91.0898 105.659 91.5265C105.431 91.9631 105.327 92.2682 105.348 92.4395C105.368 92.6108 105.49 92.8261 105.713 93.081C105.728 93.0914 105.726 93.1102 105.707 93.1415C105.692 93.1645 105.674 93.1812 105.651 93.1938C105.628 93.2063 105.611 93.2042 105.6 93.1854L103.875 91.4784C103.856 91.4575 103.864 91.4241 103.895 91.3802C103.929 91.3363 103.954 91.3259 103.971 91.3468C103.996 91.374 104.033 91.4011 104.079 91.4304C104.148 91.4722 104.217 91.4659 104.284 91.4074C104.351 91.3489 104.455 91.2089 104.593 90.9853L106.484 87.939C106.503 87.9077 106.541 87.891 106.595 87.8889C106.649 87.8868 106.685 87.8993 106.697 87.9286L112.121 94.3011C112.203 94.3931 112.251 94.4683 112.268 94.5268V94.531Z" fill="#FFFBF0"/>
<path d="M113.841 82.4941C114.367 82.3039 114.925 82.329 115.519 82.5714C115.978 82.7594 116.344 83.0331 116.616 83.3904C116.887 83.7498 117.05 84.1593 117.1 84.619C117.153 85.0786 117.081 85.5466 116.887 86.0209C116.567 86.8065 116.047 87.3038 115.331 87.5106C114.612 87.7196 113.789 87.6339 112.863 87.2578C112.044 86.9235 111.317 86.4388 110.682 85.7994C110.047 85.1601 109.602 84.4288 109.349 83.6056C109.096 82.7824 109.115 81.9529 109.407 81.1172C109.418 81.0921 109.443 81.0817 109.487 81.0838C109.528 81.0858 109.547 81.1067 109.543 81.1423C109.466 81.8317 109.583 82.4899 109.892 83.1188C110.201 83.7456 110.65 84.3076 111.238 84.7986C111.825 85.2917 112.491 85.6887 113.235 85.9917C114.079 86.3364 114.825 86.4848 115.473 86.4367C116.12 86.3886 116.54 86.1275 116.735 85.6511C117.006 84.9825 116.555 84.4079 115.377 83.9295C114.733 83.6683 114.202 83.5659 113.784 83.6244C113.367 83.6829 113.08 83.9002 112.928 84.2763C112.813 84.5605 112.794 84.8551 112.874 85.1601V85.1894C112.863 85.2228 112.836 85.2458 112.796 85.2583C112.757 85.2708 112.731 85.2667 112.723 85.2437C112.479 84.7443 112.47 84.2157 112.698 83.6558C112.936 83.0707 113.319 82.6842 113.843 82.4941H113.841Z" fill="#FFFBF0"/>
<path d="M118.812 79.5441C118.718 79.5691 118.657 79.5608 118.63 79.519L118.218 78.9987C117.426 78.0209 116.816 77.2959 116.39 76.8237C115.964 76.3515 115.525 75.9504 115.076 75.6203C114.627 75.2901 114.154 75.0728 113.661 74.9642C113.089 74.8388 112.642 74.8744 112.322 75.0728C112.002 75.2713 111.793 75.5889 111.697 76.0298C111.605 76.4518 111.637 76.8321 111.793 77.1664C111.95 77.5007 112.218 77.7598 112.592 77.9436C112.6 77.9436 112.6 77.9645 112.592 78C112.577 78.0711 112.552 78.0982 112.518 78.0815C111.933 77.8433 111.511 77.4714 111.254 76.9658C110.995 76.4602 110.937 75.8919 111.075 75.2567C111.217 74.6048 111.513 74.1389 111.963 73.8589C112.412 73.5789 112.94 73.5058 113.548 73.6395C114.033 73.7461 114.484 73.9655 114.9 74.2956C115.318 74.6278 115.684 74.9914 116.003 75.3904C116.323 75.7874 116.695 76.2972 117.123 76.9177C117.159 76.9721 117.276 77.1434 117.474 77.4317C117.675 77.7201 117.859 77.9624 118.028 78.1567C118.078 78.2236 118.114 78.2131 118.133 78.1233C118.35 77.1288 118.49 76.3975 118.55 75.9295C118.611 75.4636 118.596 75.1293 118.506 74.9287C118.417 74.7281 118.231 74.5944 117.951 74.5233C117.924 74.5171 117.917 74.4899 117.928 74.4419C117.938 74.3938 117.957 74.3729 117.984 74.3771L119.833 74.7824C119.869 74.7908 119.9 74.8075 119.925 74.8367C119.95 74.866 119.961 74.8973 119.952 74.9329L118.964 79.4396C118.954 79.4835 118.903 79.519 118.809 79.5441H118.812Z" fill="#FFFBF0"/>
<path d="M13.0857 66.6337C13.9894 66.5443 14.6496 65.7392 14.5602 64.8355C14.4708 63.9318 13.6657 63.2717 12.7619 63.3611C11.8582 63.4505 11.1981 64.2556 11.2875 65.1593C11.3769 66.063 12.182 66.7232 13.0857 66.6337Z" fill="#FFFBF0"/>
<path d="M117.078 66.6435C117.982 66.5541 118.642 65.749 118.552 64.8453C118.463 63.9416 117.658 63.2814 116.754 63.3708C115.85 63.4602 115.19 64.2653 115.28 65.1691C115.369 66.0728 116.174 66.7329 117.078 66.6435Z" fill="#FFFBF0"/>
</g>
<defs>
<clipPath id="clip0_8002_2262">
<rect width="130" height="130" fill="white"/>
</clipPath>
</defs>
</svg>
