<svg width="78" height="76" viewBox="0 0 78 76" fill="none" xmlns="http://www.w3.org/2000/svg">
<path fill-rule="evenodd" clip-rule="evenodd" d="M52.9779 31.9176C52.8648 31.7584 52.6386 31.7375 52.5025 31.6244C52.2302 31.3751 51.914 31.1489 51.5516 31.0589C50.94 30.8787 51.2353 30.8557 50.7369 30.7866C50.6007 30.7866 50.3976 30.7405 50.2845 30.7405C50.1043 30.7175 49.5158 30.8075 49.3797 30.8536C49.1074 30.9206 48.9042 31.0568 48.701 31.2159C48.611 31.306 48.5419 31.329 48.4288 31.4421C48.3387 31.5322 48.2696 31.6013 48.1565 31.6914C48.0664 31.7814 47.9533 31.8506 47.7941 31.8506C47.681 31.8506 47.4548 31.7835 47.3648 31.7835C47.1616 31.7835 47.0255 31.8736 46.8663 31.8506C46.6171 31.7835 46.504 31.8045 46.2547 31.8045L45.8924 31.7814C45.6892 31.7814 45.5991 31.8275 45.3939 31.8275C44.8745 31.8275 44.7153 31.7605 44.5352 31.7605C44.5121 31.6244 44.4681 31.4673 44.4451 31.3081C44.355 30.8787 44.355 30.3572 44.1958 29.9739C44.0827 29.7016 43.9927 29.4754 43.8796 29.2492C43.6534 28.8429 43.3371 28.2083 43.0648 27.9151C42.8847 27.7349 42.137 26.9642 42.0009 26.8741L41.5484 26.5118C40.8698 26.0133 40.3944 25.7871 39.6718 25.4708C38.9471 25.1546 39.1524 25.2446 38.4507 25.0645C38.1784 24.9975 37.9083 24.9053 37.6129 24.8613L36.2097 24.6582H35.9374C35.6441 24.6351 35.2588 24.7042 34.9655 24.6582H34.6933C34.3309 24.6582 34.0377 24.6812 33.6984 24.7042C33.4052 24.7273 33.0868 24.8173 32.7475 24.8173C32.4983 24.8173 31.4133 24.8173 31.2102 24.8404C30.9609 24.8865 30.6447 24.8634 30.3724 24.8634H29.0612C28.745 24.8634 28.1334 24.6142 28.1334 25.1797C28.1334 25.3598 28.3135 25.4729 28.4727 25.4729C28.9712 25.5399 29.5367 25.6321 29.943 25.8792C30.0561 25.9463 30.1692 26.0824 30.2153 26.2416C30.2614 26.4008 30.3284 26.5348 30.3954 26.694C30.5755 27.1464 30.4855 27.2365 30.4855 27.7789C30.4855 27.9151 30.5316 27.9821 30.5316 28.0952C30.5546 28.2083 30.5546 28.3444 30.5546 28.4575C30.5546 28.6837 30.6007 28.8869 30.6007 29.1361C30.6007 29.2953 30.6007 29.3163 30.6468 29.4524L30.6928 30.131C30.6698 30.4703 30.5567 30.198 30.6698 30.9897C30.7368 31.4882 30.919 31.329 31.2353 31.3521C31.6207 31.3521 31.9139 31.3982 32.3202 31.3521C32.4564 31.329 32.8397 31.4421 32.9088 31.306C32.9988 31.1468 32.9549 30.8306 32.9758 30.6504C32.9758 30.5373 32.9988 30.5373 32.9988 30.4012V29.8587C32.9988 29.4964 33.0449 29.1801 33.0449 28.7947C33.0449 28.2753 33.0449 27.7098 33.135 27.2113C33.2711 26.4657 33.3842 26.1264 34.0167 25.8771C34.6723 25.5839 35.42 25.5378 36.1426 25.5378C36.9574 25.5378 37.8852 25.8771 38.4507 26.1704C38.767 26.3295 39.0623 26.5097 39.3555 26.7128C39.7409 26.9851 39.9671 27.2323 40.3064 27.5946C40.5996 27.9109 40.8259 28.2963 41.0311 28.6795C41.3034 29.199 41.4374 29.7875 41.5736 30.353C41.8668 31.5071 41.7537 33.679 41.3243 34.6278C41.1652 34.9441 40.962 35.2603 40.7819 35.5557C40.4656 36.0751 39.81 36.6867 39.2655 37.0029C38.9492 37.2061 38.5869 37.3192 38.2245 37.4553C37.4789 37.7276 36.6641 37.9538 35.6693 37.9538C35.1038 37.9538 34.5613 37.9308 34.0628 37.8407C33.7696 37.7947 32.8417 37.5684 32.8417 37.2983C32.8417 36.9129 32.9088 36.5736 32.9088 36.1903C32.9088 35.874 32.8417 35.6248 32.8417 35.3085C32.8417 34.743 32.9318 34.2676 32.9318 33.6581C32.9318 33.5219 32.9088 33.3649 32.9318 33.2287C32.9318 33.1156 32.9779 32.9564 32.9549 32.8664C32.9318 32.437 32.7517 32.3909 34.1319 32.3909C34.3581 32.3909 34.7645 32.414 34.9907 32.3679C35.4661 32.3009 35.9625 32.3909 36.2348 32.3909C36.3709 32.3679 36.461 32.3449 36.6411 32.3449C36.8904 32.3449 37.0265 32.3679 37.2527 32.3909C37.3888 32.3909 37.3888 32.414 37.525 32.414C38.0235 32.3469 38.5659 32.414 39.0854 32.414C39.3116 32.414 39.4707 32.347 39.6739 32.347C40.0132 32.347 40.2855 32.37 40.6017 32.393C40.874 32.393 41.2804 32.46 41.2804 32.0998C41.2804 31.6704 40.3295 31.7835 40.0593 31.7835C39.9001 31.7835 39.8331 31.7605 39.6969 31.7605C39.3346 31.7375 38.656 31.8966 38.2036 31.8275C38.1135 31.8045 38.0004 31.8045 37.8643 31.8045L36.7793 31.8506C36.6202 31.8506 36.5531 31.8275 36.417 31.8275C36.2369 31.8275 35.4661 31.7814 35.3321 31.8045C35.219 31.8275 35.1059 31.8045 34.9928 31.8045C34.6995 31.8506 34.5173 31.8045 34.2471 31.8045C33.7277 31.8045 33.2753 31.8275 32.7538 31.8275C32.2323 31.8275 31.7589 31.7814 31.2604 31.8045C31.1243 31.8045 31.1012 31.8506 30.9672 31.8275C30.5818 31.8275 30.4478 31.7605 30.0163 31.8275C29.8571 31.8506 29.7671 31.8045 29.6309 31.8045C29.2916 31.8045 29.0194 31.8275 28.7031 31.8275C28.4099 31.8275 28.0915 31.7605 27.8213 31.8045L26.8935 31.8275C26.7133 31.8275 26.6212 31.8045 26.4411 31.8045C25.9887 31.8045 24.5183 31.7814 24.2021 31.8045C23.7958 31.8506 23.1842 31.7814 22.9349 31.8506C22.8679 31.8736 22.7548 31.9176 22.7318 31.9637C22.5726 32.0998 22.5516 32.37 22.9119 32.393C23.1842 32.393 23.5235 32.4161 23.7706 32.393C23.9298 32.37 23.9968 32.393 24.133 32.4161L25.3771 32.393C25.5572 32.393 25.6933 32.4161 25.8525 32.4161C26.1457 32.4161 26.5542 32.393 26.7804 32.393C27.3459 32.4391 27.2789 32.393 27.7082 32.4161C28.1837 32.4161 28.3638 32.2799 28.8853 32.37C29.4278 32.4601 30.0163 32.2569 30.4226 32.437C30.7619 32.5732 30.5818 33.3188 30.5818 33.635L30.6049 34.4498C30.6509 34.7221 30.6049 34.9692 30.6049 35.2645C30.6049 35.5368 30.6719 35.83 30.6049 36.0793C30.5378 36.3725 30.5588 36.4856 30.6049 36.804C30.6509 37.0302 30.5818 39.0199 30.5818 39.3592C30.5818 40.1049 30.6719 40.3101 30.5588 41.0788C30.5357 41.2819 30.5588 41.5773 30.5588 41.8244C30.5588 42.0967 30.5818 42.2768 30.5818 42.57C30.5818 43.2256 30.5357 44.2666 30.5818 44.8551C30.6049 45.2845 30.6488 45.896 30.5818 46.3254C30.5588 46.5747 30.5357 46.7317 30.5357 47.004C30.5127 47.2533 30.4457 47.4795 30.3996 47.6596C30.2865 48.2921 30.3766 48.2481 30.0603 48.8367C29.744 49.4252 29.5178 49.3791 28.9062 49.6053C28.7031 49.6724 28.2276 49.8315 28.2276 50.0808C28.2276 50.3531 28.5209 50.33 28.7261 50.33C28.9754 50.33 29.1785 50.3531 29.4508 50.3531C29.677 50.3531 29.8571 50.307 30.0833 50.307C30.4687 50.307 30.9881 50.3531 31.5076 50.3531C31.9369 50.3531 32.2993 50.286 32.7517 50.286C33.4973 50.286 33.5664 50.3992 34.5843 50.3321C34.6974 50.3321 34.7435 50.3091 34.8776 50.3091C35.3761 50.3552 35.4661 50.3321 35.9625 50.286C36.0086 50.286 36.2348 50.3091 36.3248 50.3091L37.4559 50.3992C37.7281 50.3992 37.9543 50.3091 38.2015 50.3091C38.5408 50.3091 38.834 50.3761 39.1293 50.3321C39.5587 50.3091 39.6948 50.3552 40.0572 50.3552C40.3504 50.3782 40.7128 50.3552 40.985 50.4222C41.3704 50.5123 41.5736 50.3552 41.9359 50.3552C42.2522 50.3552 42.5245 50.4222 42.8177 50.4452C43.6764 50.5814 44.8074 50.6254 45.5782 50.2421C45.9636 50.0389 46.3469 49.8127 46.6631 49.5174C46.7532 49.4273 46.8223 49.4043 46.7762 49.2451C46.6401 48.9288 46.1646 48.7466 45.8945 48.5665L44.8305 48.0471C44.8305 47.98 44.8535 47.9109 44.8766 47.8669C44.8996 47.7769 44.9226 47.7769 44.9226 47.6638C44.9457 47.5046 44.9687 47.3705 44.9897 47.2344C45.0357 46.9412 45.1488 46.715 45.1488 46.4197C45.1488 46.0133 44.8765 45.7641 44.5603 46.3296C44.4241 46.6228 44.288 46.9412 44.1079 47.2344L43.8147 47.6407L43.2952 48.0931C43.2052 48.1602 43.1591 48.1832 43.069 48.2293C42.7758 48.4094 42.4135 48.5225 42.0742 48.6147C41.3955 48.7948 41.3495 48.8869 40.4907 49.0671C39.5399 49.2472 38.3188 49.3163 37.3239 49.3163H36.6453C36.3961 49.3163 36.239 49.3394 36.0128 49.3394H35.3342L34.6556 49.3163C33.8408 49.1802 33.1622 49.1802 32.9821 48.2523C32.8229 47.3936 32.8229 46.3526 32.8229 45.3578C32.8229 45.2216 32.7999 45.1776 32.7999 45.0415C32.7999 44.8823 32.8229 44.8614 32.8229 44.7252V44.3629C32.8899 43.8435 32.8229 43.2549 32.8229 42.6894C32.8229 42.5533 32.8459 42.5093 32.8459 42.3501C32.8459 42.0778 32.8229 41.8747 32.8229 41.6485C32.8229 41.15 32.869 40.7206 32.869 40.2242C32.869 39.7949 32.8229 39.4325 32.8229 38.9801C32.8229 38.6178 33.4785 38.8 33.7277 38.8209L34.5655 38.867C34.7016 38.867 34.7016 38.8901 34.8378 38.8901C36.2411 38.9361 36.7835 38.823 38.0507 38.6178C38.1868 38.5947 38.413 38.5508 38.5261 38.5047L39.4079 38.2115C39.5671 38.1444 39.6802 38.0984 39.8373 38.0523C39.9043 38.0062 39.9964 37.9853 40.0635 37.9622C40.1535 37.9392 40.1766 37.9161 40.2666 37.8722C40.4698 37.7821 40.652 37.669 40.8321 37.5559C41.1945 37.3758 41.4437 37.2836 41.76 37.0134C41.827 36.9673 41.8731 36.9464 41.9401 36.9003C42.0071 36.8542 42.0302 36.8103 42.0993 36.7411C42.3025 36.582 42.5056 36.3788 42.7109 36.1756C43.0041 35.8824 43.5256 35.2038 43.7057 34.8184L44.0911 34.0037C44.3844 33.4382 44.2273 32.3532 44.8368 32.3532C45.109 32.3532 45.2661 32.4203 45.5384 32.4203H46.0138C46.173 32.4203 46.2631 32.3532 46.4432 32.3532C46.6024 32.3532 46.6464 32.4203 46.8056 32.4203C46.9417 32.4203 46.9857 32.3742 47.0988 32.3742C47.1895 32.3588 47.2803 32.3588 47.3711 32.3742C47.6643 32.4412 47.7334 32.3742 48.0036 32.3972C48.1628 32.3972 48.2068 32.3742 48.3199 32.3742C48.6822 32.3281 48.8183 32.3742 48.9084 32.3742C49.3608 32.3281 49.4739 32.3281 49.9033 32.3511C49.9033 32.5103 49.8132 32.5313 49.654 32.5313C49.3817 32.5313 49.2016 32.5983 48.9524 32.6674C48.8393 32.6904 48.6592 32.7135 48.6592 32.8035C48.6592 33.0758 49.0655 33.1659 49.2707 33.2559C49.3838 33.302 49.4969 33.3921 49.6331 33.4151C50.0624 33.5513 50.6049 33.4612 51.0364 33.3691C51.6249 33.256 51.9873 32.9397 52.4837 32.6444C52.7099 32.5082 53.2083 32.259 52.9821 31.9197L52.9779 31.9176Z" fill="#F0EEE6"/>
<path fill-rule="evenodd" clip-rule="evenodd" d="M22.4168 30.8767C22.4322 30.9368 22.4545 30.9968 22.4838 31.0569C22.643 31.3501 23.3216 31.6894 23.818 31.6894C24.2704 31.6894 24.4505 31.17 24.1804 30.7615C24.1343 30.6945 24.1343 30.6715 24.0903 30.6254C24.0442 30.5353 24.0233 30.5123 23.9772 30.4453C23.6148 29.9468 23.1855 30.0159 22.9362 29.9258C22.62 29.8358 22.0084 29.6326 22.1676 30.3782C22.2136 30.6275 22.3477 30.6945 22.4168 30.8767Z" fill="#F0EEE6"/>
<path fill-rule="evenodd" clip-rule="evenodd" d="M26.849 31.4422C27.1422 31.6453 27.3014 31.6684 27.6407 31.6684C27.7768 31.6684 27.98 31.6453 28.0931 31.6223C28.4785 31.5092 28.2523 30.9437 28.1392 30.6945C28.0261 30.4222 27.9591 30.4222 27.7329 30.2651C27.3705 30.0159 27.0082 29.8588 26.5348 29.8588C26.3756 29.8588 26.1955 29.8818 26.1055 29.9258C26.1055 29.9719 26.1285 30.219 26.1285 30.2651C26.1515 30.3552 26.6479 31.26 26.8532 31.4422H26.849Z" fill="#F0EEE6"/>
<path fill-rule="evenodd" clip-rule="evenodd" d="M26.1932 33.2286C26.1932 33.1386 26.4194 32.7763 26.1031 32.5961C25.6738 32.3699 25.1983 32.5731 24.8129 32.7993C24.7459 32.8663 24.7229 32.9585 24.6538 33.0485C24.5407 33.2978 24.6077 33.1616 24.4736 33.3208C24.3145 33.48 24.1574 33.8633 24.1574 34.0895C24.1574 34.2256 24.2705 34.4288 24.3836 34.4288C24.4736 34.4288 25.4476 34.1565 25.5816 34.1125C25.8748 33.9764 25.944 33.7062 26.1241 33.524C26.3042 33.3438 26.1911 33.4339 26.1911 33.2307L26.1932 33.2286Z" fill="#F0EEE6"/>
<path fill-rule="evenodd" clip-rule="evenodd" d="M24.1129 32.6422C23.8637 32.4621 23.6375 32.483 23.3673 32.5752C22.9379 32.7113 23.1411 32.5982 22.6887 33.0737C22.5756 33.1637 22.3955 33.346 22.3263 33.48C22.2593 33.5931 22.1462 33.9555 22.1462 34.1125C22.1462 34.3387 22.3263 34.3618 22.5086 34.3618C23.3003 34.3618 23.8888 34.0895 24.2051 33.3669C24.2951 33.1637 24.4543 32.8684 24.115 32.6422H24.1129Z" fill="#F0EEE6"/>
<path fill-rule="evenodd" clip-rule="evenodd" d="M24.8591 31.419C25.1984 31.6913 25.3576 31.6222 25.81 31.6222C26.3525 31.6222 26.3294 31.5091 26.2394 31.0336C26.1933 30.8074 26.2163 30.7173 26.1032 30.6042C25.9671 30.4911 25.9 30.4681 25.7869 30.311C25.6738 30.1749 25.6969 30.1079 25.4937 30.0387C25.2445 29.9487 24.8151 29.8356 24.5659 29.8586C24.4297 29.8586 24.1365 29.8586 24.1365 30.0178C24.1365 30.1309 24.2266 30.3571 24.2957 30.5372C24.3857 30.8765 24.5889 31.2158 24.8612 31.419H24.8591Z" fill="#F0EEE6"/>
<path fill-rule="evenodd" clip-rule="evenodd" d="M27.9794 32.5731C27.8202 32.5731 27.7301 32.55 27.55 32.55C27.1877 32.55 26.8044 32.8894 26.6452 33.0925C26.5321 33.2287 26.1467 33.9303 26.1467 34.0643C26.1467 34.5167 26.5321 34.3806 26.8714 34.3136C26.9615 34.2905 27.0746 34.2675 27.1646 34.2675C27.3008 34.2445 27.527 34.1314 27.6401 34.0413C27.6862 34.0183 27.6862 33.9952 27.7301 33.9743C27.9333 33.8151 28.2496 33.4988 28.2496 33.2287C28.2496 32.6171 28.3166 32.5961 27.9773 32.5731H27.9794Z" fill="#F0EEE6"/>
<path d="M47.0501 66.9327L46.8009 65.2592L46.7779 64.9199L46.5747 63.6989L46.1893 61.0975C46.1663 60.9384 46.2354 60.7813 46.3485 60.6221C46.3715 60.576 46.4846 60.509 46.6878 60.4189C46.8239 60.3729 46.9601 60.3289 47.1172 60.3058C47.2742 60.2828 47.3894 60.2388 47.4795 60.1927L47.4565 59.9435H47.3203C47.2072 59.9665 46.981 59.9896 46.6878 60.0566C46.1453 60.1467 45.7369 60.1927 45.4898 60.2158C45.3096 60.2388 45.0834 60.2388 44.8572 60.2388C44.608 60.2158 44.4279 60.2158 44.2687 60.2388C44.1095 60.2618 43.9755 60.3058 43.8163 60.3519C43.7932 60.442 43.7702 60.532 43.7702 60.6011C43.8372 60.6912 43.8833 60.7373 43.9294 60.7373H44.8572C45.3096 60.7603 45.5589 60.8043 45.6029 60.8734C45.6929 60.9635 45.762 61.3258 45.8291 61.9374C45.8751 62.2767 45.9422 62.6621 46.0092 63.1145C46.0992 63.5439 46.1453 63.8601 46.1684 64.0193C46.3275 65.1964 46.4406 65.896 46.4616 66.1222L46.5077 66.4845L46.5977 67.2532L46.6208 67.7726C46.6208 67.8187 46.6878 68.225 46.8009 68.9937L46.8239 69.1298C46.4846 68.8366 46.1914 68.5873 45.9861 68.4051L43.7472 66.4154C42.7963 65.5776 42.1637 65.0121 41.8475 64.7649C41.5312 64.4927 41.1689 64.1764 40.7626 63.7931L40.4903 63.5208L38.5215 61.7782C38.4545 61.7112 38.4084 61.6651 38.3414 61.6191C38.1151 61.3929 37.8889 61.1897 37.6167 61.0305H37.3905C37.3444 61.0305 37.2313 61.0536 37.0742 61.0975C36.6888 61.1876 36.0563 61.2777 35.1976 61.3698L35.2436 61.7552C35.3567 61.7782 35.5829 61.7782 35.9222 61.7782C36.2615 61.7782 36.5548 61.8453 36.781 61.9814C36.8941 62.0484 36.9841 62.1175 37.0302 62.2306C37.0972 62.4108 37.2103 63.0224 37.3465 64.0863L37.6188 66.4615L37.7549 67.5925C37.868 68.5203 37.935 69.1529 37.9811 69.4922C38.0712 70.2378 38.0942 70.8033 38.0712 71.1887C38.0251 71.2787 37.935 71.3479 37.845 71.3918C37.6858 71.4819 37.4386 71.551 37.0993 71.6411L36.7139 71.7542L36.5108 71.8673L36.5338 72.1165H36.76L36.8731 72.0935C37.2795 72.0034 37.7779 71.9343 38.3204 71.8903C39.1121 71.8003 39.7677 71.7311 40.3332 71.7102H40.5363C40.6034 71.6872 40.6725 71.6872 40.7626 71.6432L40.7395 71.3269C40.6934 71.3039 40.6725 71.3039 40.6264 71.2599C40.107 71.2138 39.5855 71.2138 39.043 71.2138L38.7498 71.1677C38.7037 70.9646 38.6597 70.7384 38.6367 70.5122L38.2743 67.7517C38.002 65.852 37.7989 64.3586 37.6858 63.2737V62.9805C37.845 63.0705 37.9581 63.1606 38.0481 63.2297C38.1382 63.2967 38.3644 63.5229 38.7267 63.8413C39.2922 64.3838 39.7216 64.7922 40.0169 65.0184C41.0809 65.9693 41.9627 66.7379 42.6413 67.3474C42.6874 67.3935 42.7544 67.4375 42.8445 67.5275C42.9345 67.5946 43.1377 67.7768 43.456 68.047L44.2708 68.7926C44.3608 68.8827 44.564 69.0649 44.8593 69.312C46.1265 70.353 46.8721 70.9855 47.0983 71.1887L47.5277 71.0986C47.4816 70.487 47.4607 70.1037 47.4376 69.9006C47.3475 69.0628 47.2114 68.0679 47.0522 66.9369L47.0501 66.9327Z" fill="#F0EEE6"/>
<path d="M30.6045 71.2537C30.4453 71.1406 30.3553 71.0945 30.3553 71.0505C30.2883 70.9605 30.2422 70.7782 30.1961 70.508C30.1731 70.2358 30.15 69.5362 30.15 68.4261L30.083 66.4364L29.9469 62.7501C29.9008 62.1176 29.8798 61.6652 29.8798 61.3469C29.8798 60.7813 29.8338 60.2158 29.7667 59.6964L29.4735 59.5833L29.2243 59.5372C28.908 59.9666 28.6357 60.3289 28.4326 60.5782C27.5948 61.6191 27.0753 62.2747 26.8491 62.5679L25.4249 64.4236C25.1757 64.7399 24.9495 65.0352 24.7002 65.3054C24.6332 65.3955 24.4279 65.6447 24.1117 66.051C23.4561 66.9328 22.8906 67.6114 22.4382 68.0638C22.212 68.267 22.0088 68.3801 21.7826 68.4261C21.6926 68.4261 21.4433 68.3801 21.037 68.29C20.9239 68.267 20.8778 68.2439 20.8338 68.2439L20.6537 68.1769C20.5867 68.1539 20.5176 68.1539 20.4275 68.1769C20.3814 68.2439 20.3605 68.29 20.3605 68.3361L20.3374 68.3822C20.5176 68.4492 20.6998 68.5183 20.8129 68.5623C20.903 68.5853 21.0391 68.6293 21.2192 68.6754C21.4915 68.7424 21.6947 68.8115 21.8078 68.8555C21.9209 68.8786 22.101 68.9456 22.3502 69.0356C22.8927 69.2618 23.3912 69.465 23.8205 69.6011C23.9336 69.6472 24.1138 69.6912 24.363 69.7603C24.4091 69.7143 24.4091 69.6703 24.43 69.6472C24.43 69.6242 24.43 69.5572 24.384 69.488L23.32 69.0356C23.1608 68.9456 23.0037 68.8765 22.9136 68.8094V68.5372C22.9597 68.4471 23.2529 68.0387 23.8185 67.293L25.2427 65.3242C25.2888 65.2782 25.3558 65.1651 25.4919 65.031C25.7181 65.0771 25.9213 65.1211 26.1035 65.1902L26.602 65.3494L28.2985 65.8918C28.4577 65.9589 28.6378 66.028 28.841 66.1411C28.908 67.6575 28.931 68.5393 28.908 68.7885V69.6472C28.931 70.0996 28.908 70.3719 28.885 70.462C28.8619 70.508 28.8179 70.5751 28.7488 70.6651C28.6357 70.6651 28.4556 70.6421 28.2503 70.5981L27.3916 70.3719H27.2115C27.1654 70.4389 27.1214 70.508 27.0984 70.5751C27.1445 70.6211 27.1884 70.6651 27.2345 70.6882L27.4146 70.7342C27.4607 70.7573 27.5277 70.7803 27.5948 70.8013C27.6408 70.8243 27.7079 70.8474 27.7749 70.8683L28.7467 71.1846L29.5384 71.4568C30.217 71.683 30.6925 71.8422 30.9627 71.9323C31.0297 71.9553 31.1428 71.9993 31.325 72.0454C31.3481 71.9993 31.3711 71.9784 31.392 71.9553V71.7961C31.302 71.7291 31.1658 71.616 30.9396 71.4568C30.8726 71.4108 30.7595 71.3437 30.6003 71.2537H30.6045ZM28.7949 65.6447C28.4786 65.5777 28.1163 65.4646 27.71 65.3284C26.9853 65.1022 26.3528 64.876 25.7872 64.6498L25.7412 64.6037C25.8082 64.5367 25.8773 64.4446 25.9213 64.3776C25.9653 64.3105 26.0574 64.1744 26.1936 63.9922C26.3297 63.833 26.4659 63.6529 26.5999 63.4727C26.8931 63.0664 27.3455 62.5009 27.9571 61.7993C28.3195 61.3929 28.5226 61.1437 28.5687 61.0976L28.6148 61.2777L28.7279 63.3136C28.7509 63.4267 28.774 63.9922 28.8179 65.0101C28.8179 65.2132 28.8179 65.4164 28.7949 65.6426V65.6447Z" fill="#F0EEE6"/>
<path d="M21.6252 54.9442C21.7153 54.8981 21.8054 54.8311 21.8975 54.785C21.7614 54.6258 21.5582 54.3996 21.242 54.0603L20.7225 53.6079C20.6995 53.5849 20.5633 53.4487 20.3371 53.2225C20.2471 53.1094 20.178 53.0424 20.178 53.0194L20.0188 52.8832L19.4994 52.3177L18.6406 51.3668C18.4815 51.1867 18.3683 51.0506 18.3013 50.9814C18.2552 51.0275 18.2113 51.0485 18.1882 51.0715C18.1652 51.0945 18.1421 51.1176 18.0982 51.1846C18.5506 51.8402 18.7998 52.2025 18.8438 52.2926C18.9108 52.3826 18.9569 52.4957 19.003 52.6549C18.9569 52.745 18.936 52.8141 18.8899 52.8581C18.6867 53.0843 18.1652 53.5828 17.3295 54.4185L16.9441 54.7808L15.5408 56.138L14.4559 57.179L12.8264 58.6723C12.4871 58.9886 12.2839 59.1478 12.1939 59.1708C12.0577 59.1708 11.9006 59.1038 11.6954 58.9216C11.3791 58.6493 11.0168 58.4021 10.6314 58.1529C10.5644 58.1759 10.4953 58.2199 10.4282 58.266L11.0398 58.8985C11.1529 59.0116 11.266 59.1247 11.3791 59.2378C11.7645 59.5771 12.8955 60.7081 14.7491 62.6309L16.875 64.9599C16.942 64.8929 17.0342 64.8238 17.1242 64.7567C17.5306 64.4405 18.0961 64.0551 18.7747 63.6257C18.9108 63.5357 19.0909 63.4226 19.2501 63.3095L19.07 63.1063C18.6176 63.2864 18.3244 63.3995 18.1421 63.4226C18.029 63.4226 17.939 63.4456 17.8929 63.4456C17.6437 63.5126 17.3735 63.5126 17.0782 63.4917C16.5797 63.4456 16.2634 63.3786 16.1063 63.3116C15.9471 63.2445 15.744 63.0623 15.4738 62.8131L14.4098 61.7952L14.0244 61.3888C13.549 60.8904 13.2788 60.5971 13.1866 60.5071C13.1636 60.44 13.2327 60.3479 13.3458 60.2139L13.7082 59.8515L15.4277 58.222L17.4175 56.2763L17.8028 55.9139L18.9108 54.829L19.2732 54.4666C19.4763 54.2865 19.6125 54.1734 19.6585 54.1043C19.9308 53.8551 20.134 53.742 20.2911 53.788C20.3581 53.8111 20.6073 53.9912 20.9697 54.3535C21.3551 54.7159 21.5582 54.919 21.6252 54.9421V54.9442Z" fill="#F0EEE6"/>
<path d="M16.1965 37.5957C16.1965 43.5 18.5946 48.8388 22.4631 52.7052C26.3316 56.5737 31.6704 58.9718 37.5726 58.9718C43.4748 58.9718 48.8366 56.5737 52.7051 52.7052C56.5736 48.8367 58.9717 43.4979 58.9717 37.5957C58.9717 31.6935 56.5736 26.3526 52.7051 22.4862C48.8366 18.6178 43.4769 16.2196 37.5726 16.2196C31.6683 16.2196 26.3295 18.6178 22.4631 22.4862C18.5946 26.3547 16.1965 31.6935 16.1965 37.5957ZM37.5726 17.1454C43.2276 17.1454 48.3402 19.4304 52.0495 23.1167C55.7588 26.826 58.0439 31.9386 58.0439 37.5936C58.0439 43.2487 55.7588 48.3613 52.0495 52.0475C48.3402 55.7568 43.2276 58.0419 37.5726 58.0419C31.9175 58.0419 26.828 55.7568 23.1187 52.0475C19.4094 48.3613 17.1243 43.2487 17.1243 37.5936C17.1243 31.9386 19.4094 26.826 23.1187 23.1167C26.828 19.4304 31.9406 17.1454 37.5726 17.1454Z" fill="#F0EEE6"/>
<path d="M24.9263 16.739C25.1526 16.6929 25.3117 16.6719 25.4458 16.6259C25.5128 16.6028 25.6489 16.5588 25.8312 16.4897C26.1034 16.3997 26.3066 16.3536 26.4197 16.3096C26.5328 16.2866 26.7129 16.2426 26.9852 16.1735C27.5738 16.0604 28.0701 15.9242 28.5016 15.8111C28.6377 15.765 28.8179 15.7211 29.0671 15.6519C29.0671 15.5849 29.0441 15.5388 29.0441 15.5158C29.0441 15.4697 28.998 15.4488 28.931 15.4027L27.8 15.6289C27.5968 15.6519 27.4376 15.6519 27.3245 15.6519C27.2344 15.5619 27.1884 15.4928 27.1884 15.4488C27.1423 15.3587 27.1653 14.8372 27.2345 13.9114L27.3015 11.4693C27.3015 11.4023 27.3245 11.2892 27.3476 11.0839C27.5507 10.9938 27.7539 10.9247 27.9361 10.8807L28.4346 10.7446L30.1541 10.2461C30.3133 10.2 30.5165 10.1561 30.7427 10.133C31.6245 11.3541 32.146 12.0788 32.28 12.305C32.4392 12.5312 32.5963 12.7574 32.7555 13.0066C33.0277 13.369 33.1618 13.5952 33.1848 13.6852C33.2079 13.7523 33.2079 13.8214 33.2079 13.9345C33.0948 14.0015 32.9356 14.0937 32.7324 14.1607L31.9177 14.4539C31.8716 14.4769 31.8046 14.5 31.7585 14.567C31.7585 14.634 31.7585 14.7262 31.7815 14.7932C31.8486 14.8162 31.8946 14.8162 31.9617 14.7932L32.1418 14.7471C32.1879 14.7241 32.2318 14.7241 32.301 14.7011C32.3701 14.678 32.4371 14.678 32.5041 14.655L33.476 14.3617L34.2907 14.1586C34.9923 13.9554 35.4678 13.8423 35.738 13.7523C35.805 13.7292 35.9411 13.7062 36.1003 13.6392V13.5261C36.0773 13.48 36.0542 13.459 36.0333 13.3899C35.9202 13.3669 35.7401 13.3669 35.4678 13.3669C35.3777 13.3669 35.2646 13.3669 35.0615 13.3899C34.8813 13.3899 34.7682 13.3899 34.7452 13.3669C34.6321 13.3208 34.4729 13.1868 34.3158 12.9815C34.1357 12.7783 33.7273 12.2128 33.0948 11.285L31.9407 9.67853L29.7688 6.69182C29.3834 6.19333 29.1132 5.83308 28.931 5.58384C28.6147 5.1084 28.2524 4.65599 27.89 4.27271L27.6177 4.33973L27.3685 4.42979C27.3455 4.97226 27.3224 5.42467 27.3015 5.76397C27.1884 7.07511 27.1213 7.91289 27.0983 8.27523L26.9391 10.6273C26.9161 11.0127 26.8931 11.3729 26.8491 11.7353C26.826 11.8484 26.803 12.1647 26.782 12.7071C26.715 13.7921 26.6229 14.6759 26.5098 15.2854C26.4427 15.5786 26.3296 15.8048 26.1705 15.964C26.1034 16.031 25.8772 16.1232 25.4688 16.2803C25.3788 16.3264 25.3096 16.3473 25.2657 16.3473L25.0855 16.3934C25.0394 16.4164 24.9724 16.4604 24.9054 16.5295C24.9054 16.5965 24.9054 16.6426 24.9284 16.6887V16.7348L24.9263 16.739ZM27.3245 10.3152C27.3245 10.2252 27.3245 10.066 27.3476 9.8398C27.3706 9.6136 27.3706 9.3874 27.3936 9.16119C27.4167 8.66271 27.4607 7.94011 27.5738 7.03531C27.6408 6.49284 27.6869 6.17658 27.7099 6.10746L27.823 6.22056L29.0671 7.85006C29.1341 7.94012 29.4734 8.39252 30.085 9.20727C30.1981 9.3874 30.3343 9.54657 30.4474 9.74974C30.1311 9.86284 29.7688 9.97594 29.3394 10.089C28.6147 10.3152 27.9591 10.4744 27.3706 10.6085L27.3245 10.5854V10.3131V10.3152Z" fill="#F0EEE6"/>
<path d="M9.63672 17.9369C9.77286 17.8468 9.909 17.7337 10.0661 17.5746C10.4284 17.2353 10.6777 17.0551 10.8117 17.0551C10.9248 17.0551 11.1741 17.2583 11.5804 17.6437L13.3439 19.2501L14.8603 20.7205L15.585 21.3991L17.1223 22.8694L17.5517 23.2757C17.7109 23.4118 17.8009 23.548 17.824 23.682C17.7779 23.8182 17.5747 24.0884 17.2354 24.5198C17.0763 24.679 16.9862 24.813 16.9422 24.9052C16.9192 24.9513 16.9192 24.9953 16.9192 25.0853L16.9653 25.1314C17.0113 25.1775 17.0553 25.1984 17.0784 25.1984C17.1244 25.1984 17.1684 25.1523 17.2375 25.1084C17.5768 24.746 18.0523 24.2036 18.7309 23.4349C18.7979 23.3679 18.8901 23.2757 18.9801 23.1856L19.6818 22.44L21.4013 20.5843L22.126 19.8387L23.7555 18.1191L23.8686 17.983C23.8456 17.8238 23.7555 17.6898 23.6424 17.5767C23.3492 17.2834 23.0769 16.9651 22.8277 16.6488C22.7376 16.5127 22.5344 16.1964 22.2391 15.6979C22.1491 15.721 22.103 15.744 22.059 15.788C21.992 15.855 22.0129 16.0142 22.1051 16.2404C22.4213 17.0321 22.5805 17.5976 22.6036 17.9139C22.6036 18.2532 22.5135 18.5694 22.3313 18.9087C22.1511 19.225 21.6987 19.7675 20.951 20.5592C20.6348 20.8754 20.3855 21.1477 20.1593 21.3739C19.9561 21.5771 19.82 21.6902 19.797 21.7363L19.4577 22.0986C19.2315 22.3479 19.0513 22.4379 18.8922 22.4379C18.7791 22.4149 18.5068 22.2117 18.1005 21.8263L17.3988 21.1708L16.6972 20.4922L15.5892 19.4512L15.386 19.248C15.5452 19.0449 15.8615 18.6825 16.4039 18.117L16.7893 17.7107C17.0616 17.4175 17.2648 17.2122 17.4009 17.0551C17.537 16.896 17.6501 16.7829 17.6941 16.7389C17.9434 16.4666 18.1696 16.3325 18.3727 16.3095C18.5989 16.3095 18.9613 16.4456 19.4577 16.7158C19.7509 16.896 19.9771 16.9881 20.1593 17.0321L20.2054 16.986C20.2284 16.963 20.2515 16.9399 20.2515 16.896C20.2054 16.8289 20.1614 16.7598 20.1384 16.7368C20.1153 16.7137 19.9582 16.6006 19.686 16.3744C19.3927 16.1482 19.1665 15.922 18.9403 15.7189C18.1717 14.9732 17.6962 14.5208 17.5601 14.3847C17.4931 14.2946 17.447 14.2486 17.4239 14.2255C17.4009 14.2025 17.3569 14.1794 17.3339 14.1585C17.2669 14.1815 17.1977 14.2255 17.1538 14.2716C17.0867 14.4077 17.1998 14.657 17.4931 14.9732C17.7653 15.2895 17.8994 15.5157 17.9224 15.6518C17.9455 15.7419 17.8554 15.9011 17.6962 16.1503C17.0407 16.8289 16.5191 17.3944 16.1128 17.8468C16.0898 17.8929 16.0458 17.9369 15.9997 17.983C15.9327 18.05 15.7965 18.1862 15.5934 18.3893C15.4572 18.5024 15.3672 18.6155 15.3002 18.6825L15.2101 18.7726C15.164 18.8396 15.097 18.8627 15.0509 18.9087L14.2131 18.117C13.2622 17.2583 12.7889 16.8059 12.7428 16.7598C12.2674 16.3074 12.0181 15.9911 11.9741 15.832C11.9741 15.7419 12.0642 15.5827 12.2674 15.3565L12.4265 15.1973L14.033 13.4338C14.1231 13.3668 14.1922 13.2746 14.2822 13.1846C14.6215 12.8683 14.7807 12.6861 14.8247 12.6421C14.9839 12.4829 15.1179 12.3698 15.2101 12.3489C15.3022 12.3279 15.4824 12.3489 15.7295 12.395C16.1358 12.485 16.4751 12.5981 16.7244 12.7112C16.9967 12.8243 17.1768 12.8913 17.3129 12.9144C17.359 12.8913 17.403 12.8474 17.4491 12.8013C17.4491 12.7782 17.4491 12.7552 17.426 12.7343C17.1098 12.485 16.7474 12.1457 16.3181 11.7624C16.295 11.7163 16.228 11.6493 16.1149 11.5132C16.0248 11.4001 15.9557 11.287 15.8887 11.2409C15.8426 11.2179 15.7986 11.1948 15.7526 11.1948L15.6625 11.2179L15.1871 11.7373L15.0739 11.8274L14.2592 12.6861C13.8969 13.0254 13.6476 13.2516 13.5576 13.3417C13.4675 13.4317 13.2853 13.6579 13.0151 13.9742C12.7428 14.2904 12.3595 14.6989 11.838 15.2413L10.7971 16.2823L10.3907 16.7347C10.1415 17.007 9.89224 17.2332 9.64509 17.4594C9.55503 17.5264 9.48592 17.5955 9.44193 17.6395C9.41889 17.6856 9.39585 17.7296 9.37491 17.7756C9.39795 17.8427 9.44193 17.8887 9.46497 17.9118C9.51105 17.9579 9.57807 17.9788 9.64509 17.9348L9.63672 17.9369Z" fill="#F0EEE6"/>
<path d="M46.6642 15.2455C46.9134 15.4047 47.0705 15.5178 47.1627 15.5848C47.2758 15.6518 47.4119 15.788 47.6381 15.9472C48.0905 16.3325 48.4968 16.6488 48.8592 16.919C48.9723 16.986 49.1315 17.0991 49.3577 17.2353C49.4037 17.1892 49.4247 17.1682 49.4477 17.1452C49.4708 17.1222 49.4708 17.0551 49.4477 16.986L48.566 16.2404C48.4298 16.1042 48.3167 15.9911 48.2497 15.878C48.2727 15.7649 48.2958 15.6749 48.3398 15.6518C48.3858 15.5618 48.7922 15.2665 49.5608 14.724L51.5066 13.2537C51.5527 13.2076 51.6658 13.1406 51.8229 13.0505C52.026 13.1636 52.2082 13.2767 52.3653 13.3668L52.7717 13.683L54.242 14.701C54.3781 14.8141 54.5352 14.9502 54.6944 15.1073C54.309 16.5546 54.0618 17.4154 53.9697 17.6625C53.9027 17.9118 53.8105 18.182 53.7204 18.4542C53.6073 18.8836 53.5173 19.1559 53.4482 19.2229C53.4251 19.269 53.3581 19.336 53.268 19.3821C53.1549 19.359 52.9958 19.292 52.8156 19.1789L52.07 18.7265C52.0239 18.6804 51.9569 18.6804 51.8899 18.6595C51.8229 18.7056 51.7537 18.7726 51.7098 18.8187C51.7558 18.8857 51.7768 18.9318 51.8229 18.9779L51.982 19.0679C52.0281 19.114 52.0721 19.1349 52.1182 19.181C52.1642 19.2271 52.2313 19.2711 52.2774 19.3172L53.1151 19.8827L53.7937 20.3811C54.3823 20.8105 54.7886 21.1058 55.0148 21.2629C55.0609 21.309 55.174 21.376 55.3311 21.4891L55.4211 21.3991C55.4211 21.376 55.4442 21.332 55.4672 21.2629C55.4211 21.1729 55.308 21.0137 55.1279 20.8105C55.0818 20.7435 54.9918 20.6513 54.8787 20.5173C54.7656 20.3581 54.6986 20.268 54.6755 20.245C54.6525 20.1319 54.6525 19.9287 54.7216 19.6795C54.7677 19.4072 54.9478 18.7286 55.2641 17.6667L55.8065 15.744L56.7784 12.1918C56.9145 11.5802 57.0276 11.1278 57.1177 10.8346C57.2978 10.2921 57.4109 9.74964 57.503 9.20508L57.2538 9.04589L57.0276 8.88672C56.5982 9.22602 56.2359 9.4983 55.9636 9.67843C54.8556 10.4241 54.154 10.8995 53.8608 11.1027L51.9381 12.4368C51.6218 12.663 51.3055 12.8662 51.0102 13.0694C50.9201 13.1364 50.6479 13.3186 50.2185 13.6118C49.3137 14.2444 48.589 14.7198 48.0235 15.0151C47.7512 15.1513 47.5041 15.2183 47.2779 15.1743C47.2108 15.1743 46.9846 15.0612 46.5993 14.835C46.5092 14.7889 46.4631 14.7449 46.4401 14.7219L46.2809 14.6088C46.2139 14.5858 46.1448 14.5627 46.0547 14.5418L45.9416 14.6549L45.9186 14.701C46.0777 14.8371 46.2118 14.9502 46.3249 15.0403C46.3919 15.0863 46.505 15.1534 46.6642 15.2434V15.2455ZM52.4323 12.5541C52.4994 12.4871 52.6125 12.3949 52.7947 12.2818C52.9978 12.1457 53.1801 12.0096 53.3602 11.8755C53.7665 11.5823 54.3551 11.1739 55.1468 10.6984C55.5992 10.4052 55.8715 10.246 55.9385 10.1999L55.9154 10.3801L55.44 12.3698C55.417 12.4829 55.2599 13.0254 55.0106 14.0202C54.9646 14.2004 54.8975 14.4056 54.8075 14.6088C54.5352 14.4496 54.2189 14.2465 53.8566 13.9972C53.245 13.5448 52.6795 13.1385 52.2271 12.7761L52.204 12.7091C52.2941 12.663 52.3632 12.6191 52.4303 12.5499L52.4323 12.5541Z" fill="#F0EEE6"/>
<path d="M38.6801 13.9114C39.3126 14.2737 40.0143 14.523 40.762 14.657C41.5998 14.7931 42.3224 14.7931 42.8879 14.634C43.4303 14.4538 43.9288 14.1355 44.3121 13.6831C44.7184 13.2076 44.9677 12.6882 45.0808 12.0997C45.1478 11.6242 45.1269 11.1948 45.0138 10.7885C44.8776 10.3592 44.6514 9.97377 44.3352 9.63447C43.9958 9.27212 43.4534 8.77574 42.6617 8.16415C41.5977 7.37245 40.9652 6.7839 40.739 6.4446C40.5128 6.08226 40.4457 5.74295 40.5128 5.38061C40.5798 4.90516 40.8521 4.52188 41.3275 4.2496C41.7799 3.95637 42.3224 3.88725 42.957 4.00036C43.5686 4.09042 44.0419 4.3627 44.3812 4.79206C44.7436 5.22143 44.9467 5.83302 44.9928 6.64776L45.0598 6.69384C45.0829 6.69384 45.1269 6.69384 45.1729 6.6708C45.219 6.58074 45.263 6.37757 45.3321 6.08225L45.4913 5.33663C45.5143 5.29055 45.5143 5.06435 45.5374 4.7041C45.2651 4.41087 44.9949 4.20562 44.7226 4.04853C44.3372 3.84537 43.8639 3.70923 43.2984 3.59612C42.2805 3.416 41.4427 3.5291 40.7431 3.95846C40.0415 4.38783 39.6121 4.97638 39.476 5.74505C39.409 6.17441 39.4299 6.55979 39.543 6.92214C39.7022 7.37454 39.9724 7.82694 40.3808 8.27935C40.607 8.55163 41.1725 9.02498 42.0103 9.68264C42.869 10.3382 43.4345 10.8807 43.6607 11.3121C43.91 11.7415 44 12.1709 43.91 12.6233C43.8639 12.9395 43.7068 13.2558 43.4345 13.5742C43.1623 13.8674 42.8229 14.0936 42.4397 14.2067C42.0333 14.3198 41.6249 14.3428 41.1725 14.2528C40.4709 14.1397 39.8823 13.7543 39.409 13.1217C38.9566 12.4892 38.7304 11.8106 38.7974 11.132C38.7974 11.0419 38.7974 10.9728 38.7743 10.9289C38.7513 10.8849 38.7073 10.8618 38.6612 10.8388C38.6152 10.8388 38.5712 10.8388 38.5251 10.8849C38.5021 10.9309 38.4581 11.065 38.389 11.3373C38.3219 11.7436 38.1858 12.2651 38.0036 12.8976C37.9575 13.0107 37.9366 13.0778 37.9366 13.1238C37.9135 13.2369 37.9366 13.327 38.0266 13.4401C38.0936 13.5532 38.3198 13.7124 38.6822 13.9156L38.6801 13.9114Z" fill="#F0EEE6"/>
<path d="M72.2254 36.1483C72.2023 36.1022 72.0892 36.0582 71.9091 36.0352L70.688 35.5828C70.5289 35.5597 70.2587 35.4697 69.8293 35.3105C69.513 35.1974 69.3099 35.1304 69.2408 35.1304C69.2177 35.1304 69.1737 35.1534 69.1507 35.1534L69.1277 35.2435C69.1046 35.3796 69.2408 35.5367 69.49 35.742C70.1916 36.3305 70.598 36.7829 70.7341 37.0531C70.8242 37.2332 70.8242 37.7317 70.7572 38.5464C70.7341 39.0889 70.6901 39.5413 70.6671 39.8806L68.4281 39.7214L67.7725 39.6984L64.6518 39.4952L63.2275 39.4052C62.5259 39.3381 62.0295 39.269 61.8033 39.202C61.6902 39.179 61.6002 39.135 61.5541 39.0659C61.464 38.9758 61.3949 38.7496 61.3279 38.4333C61.2818 38.094 61.2378 37.8218 61.2148 37.5746C61.2148 37.4154 61.1917 37.3023 61.1687 37.2583C61.1226 37.2353 61.0556 37.1913 60.9195 37.1683L60.8734 37.2814C60.8503 37.3484 60.8273 37.4845 60.8063 37.7568L60.7833 38.6386L60.7603 39.8597C60.7142 40.199 60.6472 40.6975 60.6011 41.33L60.488 42.528L60.7603 42.5511C60.7833 42.484 60.8273 42.3919 60.8503 42.3018C60.8964 42.1217 60.9865 41.7824 61.1666 41.2839C61.2567 40.9907 61.3467 40.8085 61.4389 40.7645C61.5289 40.6975 61.6651 40.6744 61.8682 40.6975L62.4798 40.7435L63.5878 40.8106C64.1533 40.8776 64.5596 40.9237 64.7649 40.9467L69.9445 41.263C70.1246 41.286 70.3299 41.309 70.5561 41.33C70.533 41.6462 70.4891 42.0987 70.443 42.7333C70.3969 43.525 70.3299 44.0235 70.2398 44.2266C70.1728 44.4298 70.0597 44.589 69.9236 44.679C69.6974 44.8382 69.312 44.9513 68.8156 45.0183C68.5894 45.0644 68.4763 45.0854 68.4302 45.1084C68.3841 45.1545 68.3632 45.1754 68.3401 45.2215C68.3401 45.2676 68.3632 45.3346 68.3862 45.3807C68.4532 45.4268 68.4993 45.4268 68.5663 45.4477C69.4942 45.5378 70.0367 45.5839 70.2168 45.6069L70.9184 45.653L71.2577 45.699C71.3478 45.699 71.4379 45.699 71.551 45.676C71.574 45.609 71.597 45.5399 71.597 45.4959C71.597 45.4058 71.53 45.2927 71.3939 45.2236C71.0546 45.0204 70.8744 44.9073 70.8514 44.9073C70.8053 44.8403 70.7844 44.7712 70.7844 44.6811C70.7844 44.6141 70.8305 44.3649 70.8975 44.0025C70.8975 43.9125 70.9205 43.8433 70.9205 43.7763L70.9875 42.4861L71.0546 41.8075L71.2137 39.4785L71.3939 37.5097L71.4609 37.1473L71.4379 37.0573C71.4839 36.9442 71.5049 36.8541 71.574 36.808C71.6201 36.741 71.7332 36.6719 71.9133 36.6049C72.1625 36.4918 72.2987 36.3787 72.2987 36.2886C72.2987 36.2425 72.2756 36.1985 72.2317 36.1525L72.2254 36.1483Z" fill="#F0EEE6"/>
<path d="M13.39 43.0245C13.5492 43.0014 13.6623 43.0014 13.7063 42.9784C13.9325 42.9553 14.0916 42.9553 14.1817 43.0014C14.2278 43.0475 14.2948 43.1376 14.3618 43.3177L14.7011 44.3586L14.9273 44.3356C14.8813 44.0633 14.8603 43.9062 14.8373 43.8371L14.7702 42.9784L14.498 41.5311C14.4749 41.2588 14.4519 40.8755 14.4309 40.4001V39.9247C14.4079 39.8115 14.3849 39.7445 14.3639 39.7215C14.3409 39.6984 14.2739 39.6754 14.1838 39.6545C14.1377 39.7005 14.1168 39.7445 14.0937 39.7906C14.0937 39.8136 14.0707 39.9707 14.0477 40.2891C13.9806 40.9447 13.9346 41.3531 13.9115 41.4871C13.7754 41.5541 13.5722 41.6002 13.2999 41.6233C13.2099 41.6463 13.0737 41.6463 12.9146 41.6463C12.7554 41.6693 12.6653 41.6693 12.5983 41.6693L8.81987 42.2579L8.34443 42.3249C8.07215 42.3919 7.3726 42.505 6.24159 42.6412C5.92532 42.6872 5.69912 42.7082 5.53994 42.7082L5.38076 42.7312L4.45291 42.8674H4.31677C4.20367 42.7543 4.11361 42.3689 4.02355 41.6693C4.00051 41.4662 4.00051 41.1499 4.04659 40.7184C4.09266 40.3121 4.15969 39.9938 4.27279 39.7906C4.47595 39.4283 4.77127 39.112 5.15456 38.8397C5.53994 38.5674 5.94627 38.4103 6.37563 38.3643C6.82804 38.3182 7.2574 38.3643 7.68677 38.5004C8.09309 38.6596 8.45544 38.9067 8.70468 39.2691C8.97696 39.6314 9.13404 40.0377 9.20316 40.4671C9.2262 40.7603 9.2262 41.0096 9.18012 41.1918C9.15708 41.2819 9.15708 41.3719 9.15708 41.441C9.18012 41.4871 9.2241 41.5081 9.24714 41.5311C9.33721 41.485 9.40632 41.418 9.45031 41.3049C9.58645 41.0326 9.67651 40.8064 9.69955 40.6033C9.74563 40.4001 9.74563 40.1509 9.69955 39.8576C9.58645 38.8397 9.15708 38.048 8.45544 37.5286C7.73075 36.9861 6.93904 36.7829 6.08031 36.896C5.56088 36.9631 5.0624 37.1683 4.56392 37.5286C4.06544 37.8679 3.72613 38.2972 3.54601 38.8628C3.36588 39.4052 3.34285 40.1069 3.45595 40.9656C3.50202 41.4641 3.59209 41.8934 3.65911 42.2767L3.93139 43.657C3.99841 44.0633 4.04449 44.3126 4.06753 44.4257C4.06753 44.5157 4.09057 44.6749 4.11361 44.9011C4.11361 45.3305 4.13665 45.6467 4.18063 45.8289C4.18063 45.875 4.18063 45.919 4.22671 46.0321C4.29373 46.0551 4.33981 46.0551 4.38589 46.0551C4.43197 46.0551 4.47595 46.0321 4.54507 45.9881C4.54507 45.1503 4.63513 44.6309 4.79431 44.3817C4.88437 44.2686 5.13361 44.1555 5.51899 44.1094L5.67817 44.0864C6.69608 43.9502 7.71399 43.8141 8.70887 43.68C10.8578 43.3638 12.238 43.1606 12.8936 43.0684C13.0968 43.0454 13.2559 43.0224 13.3921 43.0224L13.39 43.0245Z" fill="#F0EEE6"/>
<path d="M57.206 23.3218L56.9798 23.4118C57.0029 23.5019 57.0259 23.571 57.0469 23.615L57.0929 23.7281C57.2731 24.1135 57.4553 24.5659 57.6584 25.0853C57.9517 25.81 58.1779 26.4425 58.3601 26.962C58.3831 27.052 58.4062 27.1212 58.4271 27.1882C58.4502 27.2343 58.4732 27.3013 58.5402 27.3683L58.8334 27.2552C58.8334 27.2322 58.8565 27.1882 58.8565 27.1421C58.7664 26.6227 58.6533 26.1011 58.4941 25.6048L58.4481 25.2885C58.6512 25.1984 58.8544 25.1084 59.0806 25.0162L61.6358 23.9313C63.3994 23.1856 64.8027 22.6201 65.7975 22.2117L66.0698 22.1217C66.0237 22.3018 65.9798 22.4379 65.9337 22.551C65.8876 22.6641 65.7536 22.9364 65.5274 23.3658C65.165 24.0444 64.8948 24.5638 64.7356 24.9031C64.1031 26.1933 63.5816 27.2321 63.1753 28.0699C63.1522 28.116 63.1082 28.183 63.0622 28.2961C63.0161 28.4092 62.903 28.6585 62.7229 29.0208L62.2034 29.9927C62.1364 30.1288 62.0233 30.355 61.8641 30.7173C61.1855 32.2107 60.7792 33.0925 60.6431 33.3648L60.8232 33.7501C61.4117 33.547 61.7741 33.4108 61.9542 33.3438C62.7459 33.0506 63.6738 32.6652 64.7356 32.2128L66.273 31.5342L66.6123 31.4211L67.7203 30.9017L70.1415 29.8377C70.2776 29.7916 70.4347 29.7916 70.6399 29.8837C70.686 29.8837 70.7761 29.9968 70.9122 30.156C71.0023 30.2691 71.0714 30.3822 71.1384 30.5414C71.2055 30.6776 71.2746 30.7906 71.3416 30.8577L71.5908 30.7676L71.5448 30.6315C71.4987 30.5184 71.4086 30.3383 71.2725 30.0429C71.0463 29.5444 70.8871 29.1842 70.797 28.9349C70.73 28.7758 70.6609 28.5726 70.6169 28.3234C70.5708 28.0972 70.5038 27.917 70.4577 27.7579C70.3907 27.6217 70.3216 27.4856 70.2315 27.3725C70.1415 27.3494 70.0514 27.3725 69.9592 27.3955C69.9132 27.4625 69.8922 27.5317 69.8922 27.5756C69.8922 27.6196 69.9383 27.7558 70.0053 28.005C70.0723 28.2082 70.1184 28.3674 70.1415 28.4574C70.2315 28.9098 70.2546 29.1591 70.1875 29.2261C70.1415 29.3392 69.8022 29.4984 69.2367 29.7246C68.9204 29.8377 68.558 30.0178 68.1517 30.2C67.7454 30.4032 67.4731 30.5393 67.3139 30.5854C66.229 31.0608 65.5713 31.331 65.3682 31.4232L65.0289 31.5593L64.2832 31.8525L63.8078 32.0117C63.7617 32.0348 63.4015 32.1918 62.6768 32.5102L62.5406 32.5563C62.7438 32.15 62.903 31.8316 63.0391 31.5614L64.3733 28.8931C64.9388 27.762 65.3012 26.9934 65.4582 26.631C65.6384 26.2457 65.8436 25.8163 66.1138 25.3199L66.2939 24.9806L67.471 22.6285C67.4941 22.5615 67.538 22.4924 67.5611 22.4254C67.7203 22.1531 67.8543 21.8598 67.9465 21.5666C67.9234 21.4766 67.9004 21.4074 67.8794 21.3635C67.8564 21.2964 67.8124 21.2043 67.7433 21.0702C67.5632 20.7079 67.3139 20.1193 66.9977 19.3276L66.6353 19.4638C66.6353 19.5769 66.6814 19.8031 66.7715 20.1193C66.8615 20.4586 66.8846 20.7519 66.8175 21.0011C66.7945 21.1373 66.7275 21.2273 66.6584 21.2943C66.4992 21.4305 65.9127 21.7007 64.9388 22.0861L62.7229 22.9909L61.6589 23.3972C60.8001 23.7595 60.2116 24.0088 59.8723 24.1219C59.1937 24.4151 58.6512 24.5743 58.2658 24.6643C58.1758 24.6413 58.0857 24.5743 58.0166 24.4842C57.8805 24.3711 57.7443 24.1449 57.5642 23.8517L57.361 23.4893L57.2019 23.3302L57.206 23.3218Z" fill="#F0EEE6"/>
<path d="M3.86596 32.3469C4.20527 31.6453 4.40843 31.2389 4.45451 31.1489C4.50059 31.0588 4.59065 30.9457 4.68071 30.8326C4.79381 30.8096 4.88387 30.8096 4.92995 30.8326C5.22318 30.8996 5.92482 31.0818 7.05583 31.4211L7.55432 31.5573L9.43096 32.0997L10.8782 32.5061L12.9811 33.1616C13.4335 33.2978 13.6827 33.4109 13.7267 33.4779C13.8168 33.568 13.8168 33.7711 13.7728 34.0434C13.7058 34.4497 13.6597 34.8582 13.6597 35.3336C13.7058 35.3797 13.7728 35.4237 13.8398 35.4467L14.089 34.6089C14.1351 34.4497 14.1791 34.2927 14.2021 34.1335C14.3153 33.635 14.7216 32.0977 15.4693 29.5194L16.3972 26.5117C16.3071 26.4887 16.217 26.4447 16.1249 26.3986C15.6264 26.1955 15.0169 25.9232 14.3153 25.5399C14.1351 25.4498 13.9759 25.3598 13.7958 25.2906L13.7058 25.5399C14.0911 25.8331 14.3173 26.0593 14.4304 26.1955C14.4975 26.2855 14.5666 26.3546 14.5896 26.3756C14.7697 26.5557 14.9059 26.7819 15.042 27.0772C15.2452 27.5296 15.3353 27.8228 15.3583 28.0051C15.3813 28.1873 15.3353 28.4575 15.2452 28.8198L14.9059 30.2231L14.7467 30.7656C14.5666 31.4211 14.4304 31.8065 14.3844 31.9427C14.3383 31.9887 14.2252 31.9887 14.0681 31.9427L13.5696 31.8065L11.3076 31.151L8.61621 30.4053L8.11773 30.2461L6.62437 29.8398L6.12589 29.7037C5.87665 29.6136 5.69652 29.5675 5.60646 29.5445C5.24412 29.4314 5.064 29.3183 5.01792 29.1591C4.99488 29.0691 5.04096 28.7737 5.1771 28.2773C5.2902 27.7579 5.35722 27.4856 5.35722 27.4186C5.26716 27.3516 5.1771 27.3055 5.08494 27.2825C5.01792 27.4417 4.90482 27.7579 4.79172 28.1873L4.65558 28.8659C4.65558 28.912 4.58855 29.0921 4.4964 29.4084C4.45032 29.5445 4.42937 29.6115 4.42937 29.6346L4.36235 29.8608L4.15919 30.5624L3.75286 31.7835C3.68584 32.0097 3.61672 32.1689 3.59368 32.282C3.63976 32.305 3.68374 32.328 3.72982 32.328C3.75286 32.328 3.79684 32.3511 3.86596 32.3511V32.3469Z" fill="#F0EEE6"/>
<path d="M61.6621 54.6278C61.1636 54.1084 60.6212 53.6999 60.0787 53.4297C59.5132 53.1805 58.9016 53.0004 58.2691 52.9313C57.6366 52.8852 57.092 52.9082 56.6396 53.0213C55.9379 53.2014 55.3054 53.4507 54.7839 53.7669C54.2645 54.0832 53.766 54.4916 53.2675 54.965C53.0413 55.1912 52.635 55.5975 52.1134 56.163C51.9333 56.3662 51.7741 56.5254 51.661 56.6385C51.2757 57.0238 50.8693 57.3841 50.484 57.7025C50.2578 57.8616 50.0776 57.9957 49.9415 58.1318L49.7153 58.358L49.2859 58.7874C49.2629 58.8104 49.1959 58.8774 49.1267 58.9905C49.2168 59.0576 49.2859 59.1037 49.3529 59.1037C49.42 59.0806 49.5561 59.0366 49.7593 58.9005C50.2347 58.6073 50.574 58.4481 50.7541 58.4711C50.8903 58.4711 51.0704 58.5842 51.2736 58.8104L53.1963 60.7562L53.9419 61.5249L54.3482 61.9542L54.8907 62.5197L55.8186 63.4706C56.7003 64.3754 57.1758 65.0079 57.2889 65.3263C57.2428 65.5755 57.1087 65.8457 56.8365 66.141C56.6773 66.3673 56.5432 66.5704 56.4511 66.7736L56.5181 66.8867C56.5411 66.9097 56.5642 66.9097 56.6082 66.9328L56.6542 66.9788L59.0754 64.5367C59.0985 64.5137 59.0985 64.4906 59.1215 64.4697C59.2577 64.3335 59.3938 64.2435 59.5069 64.1304C59.8232 63.8811 60.2086 63.5418 60.661 63.0894C61.3396 62.4338 61.792 61.9584 62.0182 61.6421C62.5376 60.8965 62.8769 60.2849 63.013 59.8095C63.1722 59.334 63.2162 58.7916 63.1932 58.159C63.1932 57.5265 63.034 56.8919 62.7638 56.2594C62.4915 55.6478 62.1082 55.1053 61.6558 54.6299L61.6621 54.6278ZM61.8883 59.9435C61.7983 60.4629 61.6391 60.9614 61.3689 61.4809C61.0966 61.9793 60.7573 62.4318 60.351 62.815C60.0347 63.1083 59.6954 63.3575 59.287 63.5607C58.7676 63.7198 58.3822 63.7198 58.089 63.5607C57.7957 63.4245 56.6647 62.3396 54.742 60.3268L53.4078 58.9696C53.1355 58.6764 52.7753 58.314 52.3229 57.8616C52.2328 57.7946 52.1868 57.7255 52.1197 57.6815C52.0527 57.5914 51.9605 57.5014 51.8935 57.3652V57.2291C52.0066 56.9359 52.2559 56.5966 52.6852 56.1881C53.2968 55.5996 53.9293 55.1242 54.608 54.7849C55.2866 54.4225 55.9652 54.2424 56.6899 54.2194C57.3915 54.1733 58.024 54.2864 58.5225 54.4916C59.2681 54.8309 59.8797 55.2373 60.3992 55.7818C60.9186 56.3243 61.304 56.8228 61.5071 57.2521C61.6663 57.5684 61.7794 57.9768 61.8695 58.4502C61.9595 58.9256 61.9595 59.422 61.8925 59.9435H61.8883Z" fill="#F0EEE6"/>
<path d="M64.1514 11.0169C57.3653 4.20778 47.9549 0 37.5726 0C27.1904 0 17.803 4.20778 11.0169 11.0169C4.20779 17.826 7.62939e-06 27.2134 7.62939e-06 37.5957C7.62939e-06 47.9779 4.20779 57.3653 11.0169 64.1744C17.803 70.9605 27.2134 75.1683 37.5726 75.1683C47.9319 75.1683 57.3653 70.9605 64.1514 64.1744C70.9605 57.3653 75.1683 47.9779 75.1683 37.5957C75.1683 27.2134 70.9605 17.826 64.1514 11.0169ZM63.4958 63.5189C56.8689 70.1457 47.7077 74.2404 37.5726 74.2404C27.4375 74.2404 18.2994 70.1457 11.6725 63.5189C5.02254 56.892 0.927856 47.7077 0.927856 37.5957C0.927856 27.4836 5.02254 18.2993 11.6725 11.6725C18.2994 5.04557 27.4605 0.927853 37.5726 0.927853C47.6847 0.927853 56.8668 5.04557 63.4958 11.6725C70.1458 18.2993 74.2404 27.4605 74.2404 37.5957C74.2404 47.7308 70.1458 56.8899 63.4958 63.5189Z" fill="#F0EEE6"/>
</svg>
